<svg width="121" height="170" viewBox="0 0 121 170" fill="none" xmlns="http://www.w3.org/2000/svg">
<path d="M119.008 51.1754C127.271 37.0397 98.9851 29.7191 88.774 27.2706C86.726 26.7794 85.8518 29.5513 87.8976 30.0418C95.3577 31.8309 122.875 38.2408 116.162 49.7247C115.2 51.3695 118.043 52.8254 119.008 51.1754Z" fill="#1A1A1A"/>
<path d="M74.0032 27.2193C54.9139 27.2879 33.7437 27.8198 15.9769 34.6477C9.47058 37.1482 -2.87415 44.3063 1.36801 52.0835C4.73857 58.2629 16.6138 59.9118 23.2944 61.0277C36.5613 63.2432 50.2208 63.8837 63.7043 63.964C76.72 64.0413 90.37 63.9391 103.103 61.281C105.164 60.8505 104.291 58.0782 102.226 58.5095C89.7868 61.1069 76.4243 61.1657 63.7043 61.0899C49.2618 61.004 34.4367 60.4034 20.3207 57.5542C15.6855 56.6182 9.87093 55.5683 6.20119 52.7281C1.18556 48.8452 6.21459 43.4038 10.4485 40.6296C17.6613 35.9046 27.3562 33.9989 36.0494 32.6226C48.5498 30.6438 61.3221 30.1386 74.0032 30.0934C76.1234 30.0858 76.1281 27.2117 74.0032 27.2193Z" fill="#1A1A1A"/>
<path d="M80.9032 61.3778C76.2715 58.2142 74.8784 52.8407 76.7194 48.0606C80.1738 39.0911 90.4645 35.6353 100.434 37.7045C108.894 39.4601 115.725 44.6779 115.444 52.6971C115.118 62.0021 106.918 66.9666 96.9345 67.2048C94.8177 67.2553 94.8091 70.1298 96.9345 70.0789C107.465 69.8275 116.887 64.8917 118.511 55.2647C120.161 45.4888 113.334 38.0253 102.795 35.2809C92.4649 32.5919 81.1167 35.103 75.5343 43.5123C71.287 49.9104 71.4711 58.5595 78.5724 63.4105C80.2235 64.5381 82.572 62.5178 80.9032 61.3778Z" fill="#1A1A1A"/>
<path d="M89.4877 38.0904C100.494 36.541 110.1 39.9225 109.974 50.7038C109.89 57.8302 106.829 64.5156 99.0681 67.6219C97.1424 68.3925 98.8151 70.8704 100.731 70.1036C110.829 66.062 114.794 55.58 112.927 46.3952C110.776 35.8138 99.1818 33.8308 88.6114 35.3188C86.5232 35.6128 87.409 38.3825 89.4877 38.0904Z" fill="#1A1A1A"/>
<path d="M80.1188 53.1126C81.0972 54.2371 82.3467 55.0555 83.9433 55.3861C86.006 55.8129 86.8859 53.0421 84.8197 52.615C84.1154 52.4691 83.4137 52.178 82.9649 51.6619C82.428 51.0448 81.5434 50.7214 80.7103 51.1466C80.0129 51.5025 79.5779 52.4905 80.1188 53.1126Z" fill="#1A1A1A"/>
<path d="M87.0427 46.482C87.6273 47.2198 88.1409 47.9892 88.5884 48.7967C88.9753 49.4952 90.118 49.6819 90.843 49.312C91.6619 48.8943 91.8227 48.0473 91.4341 47.3461C90.987 46.5386 90.4734 45.7692 89.8889 45.0314C89.3834 44.3939 88.4435 44.1029 87.6342 44.5157C86.9096 44.8855 86.5343 45.8404 87.0427 46.482Z" fill="#1A1A1A"/>
<path d="M99.4477 43.237C98.666 44.5482 98.235 45.9249 98.1364 47.3993C98.0127 49.2469 101.309 49.2408 101.433 47.3993C101.496 46.4478 101.79 45.5332 102.294 44.6877C103.271 43.0489 100.428 41.5938 99.4477 43.237Z" fill="#1A1A1A"/>
<path d="M102.733 54.991C103.574 54.8017 104.416 54.6121 105.257 54.4229C107.31 53.9611 106.44 51.188 104.381 51.6517C103.54 51.8409 102.698 52.0302 101.857 52.2198C99.8042 52.682 100.674 55.4543 102.733 54.991Z" fill="#1A1A1A"/>
<path d="M83.9742 13.7166C85.503 15.1933 87.0313 16.6699 88.5597 18.1465C89.9838 19.5225 92.3089 17.4849 90.8904 16.1142C89.3617 14.6376 87.8333 13.1609 86.305 11.6843C84.8808 10.3083 82.5557 12.3459 83.9742 13.7166Z" fill="#1A1A1A"/>
<path d="M79.1461 18.4972C81.5961 19.8717 84.0462 21.2458 86.4963 22.6199C88.2854 23.6234 89.94 21.1369 88.16 20.1386L80.8097 16.0156C79.0202 15.012 77.3657 17.499 79.1461 18.4972Z" fill="#1A1A1A"/>
<path d="M76.7062 24.3537C79.1048 25.4522 81.6833 26.0279 84.395 26.0381C86.516 26.0456 86.5191 23.1719 84.395 23.164C82.2648 23.1561 80.2574 22.7368 78.3698 21.8721C76.4934 21.0129 74.8255 23.4923 76.7062 24.3537Z" fill="#1A1A1A"/>
<path d="M75.2826 62.0122C72.5074 72.8764 69.4369 83.6762 66.2189 94.4469C64.8661 98.9737 63.1035 103.552 62.0987 108.15C61.4117 111.295 61.9975 110.57 58.8215 110.795C57.096 110.918 55.2179 110.705 53.4877 110.607C54.0173 111.213 54.5474 111.819 55.077 112.426C58.8626 97.0473 62.6478 81.6692 66.4334 66.2906C69.4818 53.906 72.6094 41.5078 76.0677 29.2069C78.8568 19.2871 84.0436 12.5889 94.8777 8.31239C98.1493 7.02122 101.546 6.08331 104.942 5.08619C106.031 4.76651 107.463 4.09398 108.599 3.98994C110.933 3.77581 110.78 1.80118 111.127 4.98026C111.498 8.37988 105.957 9.28991 102.876 10.4322C96.0701 12.9542 90.013 15.7057 86.8197 21.7759C84.1271 26.8938 82.5291 32.5685 81.3765 38.0965C80.9991 39.9042 84.1751 40.68 84.5547 38.8603C85.7851 32.9617 87.265 25.6396 91.1924 20.6348C96.349 14.0636 105.832 14.2197 112.43 9.6797C115.164 7.79857 118.395 2.18305 113.798 0.298523C111.221 -0.758156 107.561 1.27529 105.291 1.96328C100.202 3.50551 95.1237 4.88036 90.3252 7.05215C81.7634 10.9271 76.7495 16.7575 74.0124 24.7597C70.3154 35.5678 68.0616 46.8659 65.1934 57.8605C63.0243 66.173 61.0407 74.5231 58.9888 82.8578C56.6256 92.4591 54.262 102.06 51.8988 111.662C51.6636 112.616 52.3805 113.418 53.4877 113.481C56.5024 113.652 59.5267 113.642 62.541 113.813C63.2474 113.854 63.9573 113.339 64.1303 112.758C69.0789 96.1313 74.1767 79.5467 78.4608 62.776C78.9212 60.9744 75.7443 60.2046 75.2826 62.0122Z" fill="#1A1A1A"/>
<path d="M5.63711 57.0697C14.9312 64.5901 19.5573 75.8385 17.0406 86.8007C14.7259 96.8857 6.09756 104.576 5.11398 115.113C4.3885 122.88 7.46896 131.026 14.8465 135.785C23.2621 141.213 50.8456 142.526 38.443 156.344C37.1503 157.784 39.4668 159.832 40.7737 158.376C46.7293 151.741 47.6013 145.231 38.3193 140.988C32.6271 138.386 26.0174 137.818 20.3044 135.29C11.2044 131.264 7.37903 122.851 8.56927 114.267C10.2312 102.28 20.9434 93.3605 20.9827 80.9141C21.0139 71.0338 16.2382 61.7296 7.96788 55.0374C6.41447 53.7805 4.07851 55.8083 5.63711 57.0697Z" fill="#1A1A1A"/>
<path d="M101.15 58.3025C93.1353 64.8948 89.9174 74.225 90.6843 83.6963C91.6783 95.964 103.046 107.391 98.9503 119.829C96.607 126.945 90.7933 131.517 83.2562 134.444C78.2 136.407 72.7554 138.088 69.173 141.984C63.4341 148.224 66.6793 156.538 75.0763 159.137C77.0789 159.756 77.9406 156.981 75.9522 156.365C70.2902 154.613 67.6992 149.398 70.8756 144.788C72.8315 141.95 76.3763 140.272 79.6838 138.9C83.8706 137.162 88.2783 135.939 92.0358 133.487C98.6844 129.148 102.832 122.179 103.174 114.954C103.606 105.826 97.2491 98.0616 94.9663 89.4355C92.2313 79.1002 94.3822 67.8186 103.481 60.3348C105.027 59.0629 102.693 57.0332 101.15 58.3025Z" fill="#1A1A1A"/>
<path d="M42.3545 151.664C36.7423 152.155 25.8619 153.217 23.4879 158.631C20.6694 165.057 31.0958 167.348 36.0553 168.244C47.4173 170.298 59.6496 170.504 71.1231 169.102C76.7709 168.413 87.4683 167.077 87.6888 160.413C87.9318 153.078 75.0968 151.85 69.0029 151.664C66.8814 151.6 66.8844 154.474 69.0029 154.538C73.4811 154.675 90.8765 157.585 82.0805 163.407C75.5594 167.723 63.0461 167.098 55.3728 167.013C47.4268 166.924 36.0496 167.127 29.0046 163.308C20.0654 158.461 38.2101 154.9 42.3545 154.538C44.4453 154.356 44.4669 151.48 42.3545 151.664Z" fill="#1A1A1A"/>
<path d="M70.7298 41.6724C56.8325 41.4527 40.0986 41.8017 27.4954 47.674C20.759 50.8127 18.1576 55.8533 24.1153 60.9109C25.6363 62.2021 27.9692 60.1717 26.4461 58.879C18.5082 52.1404 33.1587 48.4253 38.8401 47.179C49.2354 44.8994 60.0505 44.3776 70.7298 44.5465C72.8513 44.5801 72.8518 41.706 70.7298 41.6724Z" fill="#1A1A1A"/>
<path d="M23.54 60.9108C34.7135 68.8847 26.8176 84.46 22.8375 93.8261C18.5534 103.907 12.8845 117.564 23.2101 126.378C42.6483 142.972 97.2759 139.311 92.3394 108.335C91.1081 100.608 86.8162 93.6848 84.8529 86.1406C82.852 78.4521 86.5944 69.676 91.1872 63.1191C92.2957 61.5366 89.4462 60.0909 88.3411 61.6685C84.4573 67.2132 81.5351 73.8887 81.0423 80.3905C80.5005 87.5366 84.5265 94.1877 86.9014 100.848C90.6364 111.323 90.5759 121.049 79.3323 127.784C69.2073 133.849 55.8612 134.471 44.2294 131.988C32.4939 129.483 20.1574 124.473 20.6662 112.464C21.0026 104.526 25.0973 96.8846 28.1795 89.5485C31.9975 80.4603 36.212 66.259 25.8708 58.8785C24.2421 57.7162 21.8971 59.7384 23.54 60.9108Z" fill="#1A1A1A"/>
<path d="M29.7534 105.381C28.3163 112.077 30.4637 119.403 38.5015 121.845C40.5088 122.455 41.3718 119.679 39.3778 119.073C33.1564 117.184 31.849 111.19 32.9316 106.144C33.3198 104.337 30.1434 103.562 29.7534 105.381Z" fill="#1A1A1A"/>
<path d="M44.5349 122.919C44.4155 123.023 44.2962 123.127 44.1765 123.231C42.6749 124.541 45.0048 126.574 46.5072 125.264C46.6266 125.159 46.7463 125.055 46.8656 124.951C48.3672 123.642 46.0373 121.609 44.5349 122.919Z" fill="#1A1A1A"/>
<path d="M24.1098 51.8761C25.7834 54.6096 27.6459 57.2372 29.7017 59.7645C30.4423 60.6753 32.1829 59.8022 31.4341 58.8816C29.3783 56.3543 27.5154 53.7264 25.8422 50.9932C25.2339 49.9995 23.5015 50.8824 24.1098 51.8761Z" fill="#1A1A1A"/>
<path d="M27.3387 50.0005C29.5554 53.5652 31.7724 57.1303 33.9895 60.6954C34.6052 61.6854 36.338 60.8033 35.7219 59.8122C33.5048 56.2474 31.2878 52.6823 29.0711 49.1172C28.4555 48.1273 26.7227 49.0094 27.3387 50.0005Z" fill="#1A1A1A"/>
<path d="M31.1061 48.842C34.0491 52.9266 36.9916 57.0108 39.9346 61.0954C40.6199 62.0462 42.3566 61.1693 41.667 60.2121C38.7245 56.1279 35.7811 52.0433 32.8385 47.9591C32.1533 47.0084 30.4165 47.8852 31.1061 48.842Z" fill="#1A1A1A"/>
<path d="M36.236 47.8417C39.3165 53.2069 42.9905 58.2268 47.2344 62.9481C48.0304 63.8336 49.4411 62.5877 48.6534 61.7112C44.5176 57.1109 40.9685 52.1845 37.9684 46.9584C37.3904 45.9515 35.6593 46.8367 36.236 47.8417Z" fill="#1A1A1A"/>
</svg>
