<svg width="101" height="170" viewBox="0 0 101 170" fill="none" xmlns="http://www.w3.org/2000/svg">
<path d="M13.1259 6.86444C15.742 6.37975 18.3581 5.89506 20.9738 5.41C22.9471 5.04397 22.1121 2.31029 20.1417 2.6752C17.5255 3.16026 14.9094 3.64533 12.2933 4.13002C10.3204 4.49567 11.1555 7.22973 13.1259 6.86444Z" fill="#1A1A1A"/>
<path d="M5.35372 21.235C4.31574 26.1258 10.2458 28.3179 14.1949 25.3737C19.5975 21.3455 19.3585 11.1294 19.4291 5.41803C19.4517 3.59273 16.3201 3.59161 16.2975 5.41803C16.256 8.79152 15.9878 12.139 15.3532 15.4667C15.0887 16.8557 14.8151 18.277 14.3608 19.6251C14.0885 20.2946 13.8157 20.9638 13.543 21.6334C12.3308 24.1379 10.6077 24.2562 8.3732 21.9886C8.7515 20.2054 5.73408 19.4421 5.35372 21.235Z" fill="#1A1A1A"/>
<path d="M25.1808 3.90994C24.8017 9.27873 23.8351 14.9142 24.1946 20.2934C24.349 22.6049 24.8255 26.8503 28.2446 26.8511C31.4346 26.8514 33.1458 23.0621 33.8584 20.7952C35.6009 15.2516 36.2507 9.29249 36.8948 3.57144C37.0993 1.75766 33.9661 1.77031 33.7636 3.57144C33.3347 7.37679 32.779 11.165 32.0236 14.9287C31.7525 16.2801 30.6923 24.6333 27.6712 22.5581C26.2438 21.5775 27.5533 14.6538 27.6589 13.1592C27.8766 10.0763 28.0943 6.99291 28.3124 3.90994C28.441 2.08761 25.3089 2.09468 25.1808 3.90994Z" fill="#1A1A1A"/>
<path d="M40.9347 3.91247C40.2606 10.9165 39.5866 17.9201 38.9125 24.9241C38.761 26.4991 41.7016 26.8819 41.9879 25.301C42.0289 25.0755 42.07 24.8498 42.1107 24.6243C42.4339 22.8392 39.4173 22.0711 39.0912 23.8703L38.9684 24.5473C39.9936 24.6731 41.0189 24.7984 42.0441 24.9241C42.7178 17.9201 43.3918 10.9165 44.0663 3.91247C44.2409 2.09461 41.1084 2.10539 40.9347 3.91247Z" fill="#1A1A1A"/>
<path d="M60.6195 5.3639C60.8708 2.0901 57.5474 -0.816923 53.8945 0.982346C49.3442 3.2239 48.6217 10.2231 48.3596 14.2632C48.1748 17.111 47.0098 23.8502 51.8235 24.3628C56.3837 24.8486 58.9727 19.815 59.3038 16.5304C59.487 14.7133 56.3542 14.7244 56.1722 16.5304C55.9089 19.1443 51.5602 23.7479 51.3413 18.7057C51.2772 17.236 51.3959 15.7302 51.4908 14.2632C51.6087 12.4524 51.7816 10.6252 52.3004 8.86609C52.6007 7.74532 53.0369 6.66806 53.6091 5.63358C54.1837 3.91429 55.4764 3.82427 57.4878 5.3639C57.3482 7.18512 60.4802 7.1773 60.6195 5.3639Z" fill="#1A1A1A"/>
<path d="M75.9069 0.0223751C72.9195 0.470612 70.0405 -0.931011 68.2073 1.94291C66.2209 5.05638 66.5343 10.1283 66.0077 13.6231C65.7054 15.6292 63.8767 20.0948 65.5517 21.8967C67.5624 24.0594 73.214 21.5388 75.3869 21.0426C77.3396 20.597 76.5124 17.8611 74.5543 18.3082C73.2407 18.608 71.7529 19.211 70.4184 19.2526C68.8374 19.3017 68.8246 19.4249 68.4517 18.197C67.9193 16.4468 69.3286 12.377 69.603 10.5561C69.8606 8.84798 69.6577 5.75236 70.5736 4.30498C71.907 2.19772 74.5909 3.07931 76.7395 2.7568C78.7227 2.45884 77.8814 -0.274466 75.9069 0.0223751Z" fill="#1A1A1A"/>
<path d="M69.2017 10.8467C71.0632 10.9806 72.8964 10.8567 74.7284 10.5331C76.7042 10.1838 75.8679 7.44974 73.8958 7.79866C72.3399 8.07355 70.7806 8.12451 69.2017 8.01069C67.1923 7.86599 67.2029 10.7027 69.2017 10.8467Z" fill="#1A1A1A"/>
<path d="M14.6524 57.7619C5.98459 64.7232 4.84925 76.5644 3.79977 86.3426C1.73407 105.586 0.895307 125.313 0.517821 144.654C0.344482 153.544 1.25677 163.153 11.3441 167.19C18.0912 169.89 26.0994 169.999 33.341 170C45.6572 170.001 58.1384 169.44 70.3736 168.126C79.2842 167.17 92.7997 166.166 97.7411 158.05C101.707 151.537 100.212 141.305 100.273 134.242C100.401 119.371 99.9625 104.472 98.8818 89.6324C98.1646 79.7924 98.4657 67.3017 93.8866 58.1015C92.2563 54.8262 89.6809 54.2921 85.8863 53.6716C77.8519 52.3582 69.534 52.1104 61.3912 51.9787C51.4747 51.8184 41.4773 52.0282 31.6294 53.1628C25.9642 53.8156 19.3046 54.4703 14.6524 57.7619C13.066 58.8842 15.296 60.8784 16.8668 59.7673C21.1842 56.7126 28.446 56.3142 33.6384 55.783C41.3183 54.9962 49.0771 54.7678 56.8018 54.7753C63.8923 54.782 71.005 54.9914 78.0659 55.6011C81.2443 55.876 87.8468 55.6944 90.3069 57.9408C92.4465 59.8948 92.7348 64.8247 93.2072 67.3545C94.2074 72.7111 94.7726 78.1382 95.2585 83.5502C96.4386 96.6978 96.9459 109.903 97.1123 123.091C97.2326 132.628 97.689 142.497 96.3996 151.99C95.3354 159.824 88.0699 162.316 80.2947 163.847C71.8368 165.512 63.0917 166.035 54.4704 166.484C44.3555 167.01 34.0196 167.667 23.9014 166.841C18.4034 166.392 11.7722 165.523 7.80712 161.646C4.33786 158.253 3.82236 153.269 3.6597 148.863C3.39928 141.793 4.18054 134.686 4.60157 127.634C5.24769 116.812 5.40747 105.973 6.17025 95.156C6.95808 83.9795 6.70177 67.9311 16.8668 59.7673C18.3775 58.5535 16.1562 56.5541 14.6524 57.7619Z" fill="#1A1A1A"/>
<path d="M71.6359 54.5403C73.6363 57.3651 75.7123 60.1497 77.8552 62.8871C80.0823 65.7331 82.9001 70.448 86.4646 72.0985C92.7809 75.023 92.2029 59.0301 92.2083 56.2986C92.2115 54.4737 89.0803 54.4707 89.0766 56.2986C89.0717 58.8768 88.962 61.465 88.7045 64.0328C88.5283 65.7889 87.9245 67.4945 87.7211 69.2152C87.6324 69.9659 88.2058 69.8882 87.7976 69.4994C87.2944 69.0207 86.7337 68.5933 86.2363 68.1038C81.6728 63.6129 77.9702 58.2359 74.3399 53.1089C73.2551 51.5774 70.5437 52.998 71.6359 54.5403Z" fill="#1A1A1A"/>
<path d="M74.7587 58.3938C75.9967 74.633 76.8987 90.9019 77.5103 107.17C77.9568 119.043 78.2715 130.938 77.97 142.818C77.8069 149.242 78.925 159.504 74.9727 165.245C73.903 166.798 76.6112 168.224 77.6763 166.677C81.44 161.21 80.7705 152.103 81.0022 146.008C81.4614 133.925 81.1587 121.815 80.7352 109.735C80.1346 92.6108 79.1928 75.4859 77.8903 58.3938C77.7523 56.5834 74.6198 56.5696 74.7587 58.3938Z" fill="#1A1A1A"/>
<path d="M78.1609 165.901C80.4447 163.025 82.7281 160.149 85.0115 157.274C87.0012 154.768 89.2369 150.627 92.1997 149.036C91.5676 148.962 90.935 148.888 90.3024 148.814C92.5024 150.431 94.0954 153.611 95.6509 155.721C96.7645 157.232 99.4779 155.814 98.3549 154.29C96.6067 151.918 94.9699 148.612 92.5168 146.809C91.9717 146.409 91.2611 146.242 90.6195 146.587C87.8954 148.05 85.8868 151.345 84.0655 153.63C81.1881 157.237 78.3264 160.856 75.4568 164.469C74.2784 165.953 76.9935 167.37 78.1609 165.901Z" fill="#1A1A1A"/>
<path d="M87.1386 71.1001C86.8765 87.1269 86.6149 103.153 86.3524 119.18C86.3228 121.005 89.4544 121.006 89.484 119.18C89.7461 103.153 90.0081 87.1269 90.2702 71.1001C90.2998 69.2748 87.1686 69.2741 87.1386 71.1001Z" fill="#1A1A1A"/>
<path d="M86.8754 128.423C87.1173 135.306 87.3592 142.19 87.6016 149.074C87.6653 150.894 90.7973 150.902 90.7328 149.074C90.4909 142.19 90.2489 135.306 90.007 128.423C89.9429 126.602 86.8109 126.594 86.8754 128.423Z" fill="#1A1A1A"/>
<path d="M36.3869 53.8327C36.4157 50.4734 36.4724 46.1863 38.3869 43.2365C40.9122 39.3452 48.4591 39.6034 52.8603 39.4252C56.4516 39.2798 64.0945 38.4644 67.0955 40.7268C70.3302 43.1651 69.2487 50.3692 68.8794 53.8327C68.6856 55.648 71.8184 55.6361 72.0111 53.8327C72.458 49.6424 73.277 42.4092 69.7646 39.0648C66.1664 35.6381 57.4366 36.404 52.8603 36.5896C48.2093 36.7775 40.6074 36.6276 37.0351 39.8697C33.4862 43.0907 33.2919 49.549 33.2553 53.8327C33.2397 55.6577 36.3713 55.6595 36.3869 53.8327Z" fill="#1A1A1A"/>
<path d="M36.2665 48.1563C47.4305 46.6814 58.61 46.1908 69.88 46.6174C71.8952 46.6937 71.8911 43.8577 69.88 43.7815C58.3188 43.3436 46.8821 43.9094 35.4339 45.4219C33.4475 45.6841 34.292 48.4171 36.2665 48.1563Z" fill="#1A1A1A"/>
<path d="M41.1694 39.6638C40.8995 41.7145 40.8268 43.7634 40.9501 45.8256C41.0589 47.6409 44.1909 47.6524 44.0817 45.8256C43.958 43.7634 44.0307 41.7145 44.301 39.6638C44.5393 37.8556 41.4056 37.8708 41.1694 39.6638Z" fill="#1A1A1A"/>
<path d="M47.2731 39.3405C47.4292 40.9902 47.5857 42.6392 47.7422 44.2889C47.9131 46.0934 51.0463 46.1098 50.8738 44.2889C50.7173 42.6392 50.5608 40.9902 50.4047 39.3405C50.2334 37.5356 47.1006 37.5193 47.2731 39.3405Z" fill="#1A1A1A"/>
<path d="M54.0182 38.7288V44.2773C54.0182 46.1019 57.1498 46.1052 57.1498 44.2773V38.7288C57.1498 36.9043 54.0182 36.9013 54.0182 38.7288Z" fill="#1A1A1A"/>
<path d="M61.1666 39.0369V43.6606C61.1666 45.4852 64.2982 45.4885 64.2982 43.6606V39.0369C64.2982 37.2123 61.1666 37.209 61.1666 39.0369Z" fill="#1A1A1A"/>
<path d="M27.3276 68.5235C25.8399 66.4914 23.1551 66.0301 20.9116 67.4314C17.9784 69.2641 17.4165 72.917 17.108 75.8817C16.8036 78.8073 17.3565 82.3545 20.8089 83.5515C23.3129 84.4201 25.7244 83.1472 26.5755 80.9748C27.2508 79.2518 24.2264 78.5101 23.556 80.2208C22.0646 81.0756 21.1318 80.9242 20.7576 79.7666C20.1977 79.0774 19.9862 78.2891 20.1238 77.4023C20.104 76.4988 20.2601 75.5763 20.4039 74.6861C20.5349 73.8752 20.6717 73.0602 20.9523 72.2772C21.2299 71.5027 23.1075 67.8837 24.6236 69.9549C25.7326 71.4689 28.4457 70.0501 27.3276 68.5235Z" fill="#1A1A1A"/>
<path d="M34.8817 66.2663C30.9249 66.2801 30.0639 71.121 29.7431 73.8856C29.4515 76.4028 29.2272 81.044 32.2865 82.4263C35.6683 83.9551 38.1846 80.2654 39.0879 77.8725C40.4372 74.297 39.8096 70.412 37.6535 67.2186C36.604 65.6641 33.8946 67.0869 34.9499 68.65C36.6804 71.2133 37.962 76.6051 35.0177 79.0119C32.6776 80.9242 32.7322 77.0244 32.7515 75.7455C32.7659 74.794 33.1495 69.1083 34.8817 69.1023C36.8965 69.0952 36.9006 66.2593 34.8817 66.2663Z" fill="#1A1A1A"/>
<path d="M51.134 66.4074C49.7247 64.7867 47.1258 64.6688 45.3148 65.8323C43.0059 67.3147 42.3832 70.2979 42.0369 72.6608C41.6923 75.0083 41.42 78.0612 43.3427 79.9668C45.0277 81.6366 47.59 81.73 49.4618 80.3407C51.0214 79.1831 48.7947 77.187 47.2478 78.3353C43.4442 81.1586 45.2129 64.1495 48.9196 68.4127C50.1654 69.8456 52.3675 67.8265 51.134 66.4074Z" fill="#1A1A1A"/>
<path d="M58.9323 65.4C54.856 66.3601 54.9155 73.3585 54.8141 76.4047C54.7003 79.8076 56.1568 84.2542 61.028 82.5926C64.708 81.3375 66.4738 76.2354 66.5515 73.0275C66.6418 69.3185 63.8939 65.8791 59.6072 65.8825C57.592 65.884 57.5887 68.7196 59.6072 68.7181C62.9906 68.7158 63.7534 72.0867 63.2001 74.5232C63.0075 75.3713 62.676 76.1975 62.3145 76.9961C61.6351 78.4974 61.4568 79.3496 59.4811 79.2295C57.4298 79.1049 57.9219 78.4163 57.9289 76.8964C57.9334 75.9178 58.0098 74.9231 58.1268 73.9504C58.2262 73.126 58.598 68.4093 59.7649 68.1348C61.7136 67.6758 60.8875 64.9399 58.9323 65.4Z" fill="#1A1A1A"/>
<path d="M33.4695 114.766C29.8413 119.211 35.658 126.233 38.5354 129.583C42.928 134.696 49.6513 141.207 57.0995 142.366C62.6698 143.232 65.8971 139.468 64.9684 134.682C63.686 128.077 57.8787 121.737 52.4494 117.482C47.5088 113.61 39.3536 109.201 33.7143 114.479C32.3124 115.791 34.5239 117.798 35.9283 116.484C41.1511 111.596 49.6192 118.644 53.247 122.101C56.3253 125.033 64.5585 133.54 61.7271 138.253C58.4932 143.635 47.4324 134.199 45.1017 132.068C42.2096 129.421 32.6472 120.517 36.1735 116.197C37.3721 114.728 34.6558 113.312 33.4695 114.766Z" fill="#1A1A1A"/>
<path d="M40.151 119.908C38.0541 122.14 41.0091 125.699 42.4706 127.539C44.8945 130.592 47.9936 133.988 51.8227 135.638C54.6006 136.834 58.0588 135.991 57.9767 132.736C57.8859 129.119 53.7697 125.772 50.9716 123.648C48.9088 122.082 43.4658 117.712 40.4677 119.685C38.8539 120.749 40.4147 123.21 42.0483 122.134C42.3609 121.929 44.2722 122.831 45.0608 123.255C46.7018 124.137 48.2245 125.199 49.6453 126.349C50.5038 127.045 56.5131 132.117 54.6512 133.401C53.0776 134.487 48.1801 129.407 47.3693 128.578C46.0898 127.27 44.9002 125.877 43.9008 124.38C43.5336 123.83 43.1298 123.251 42.8776 122.648C42.5983 121.979 42.7725 121.479 42.3654 121.913C43.6642 120.53 41.4593 118.515 40.151 119.908Z" fill="#1A1A1A"/>
<path d="M33.714 114.479C22.2962 123.028 9.03409 140.166 24.1081 151.28C39.3365 162.509 56.8824 153.118 64.9747 139.463C65.9276 137.856 63.2253 136.422 62.2711 138.032C54.9978 150.305 38.5412 159.849 25.047 148.29C13.237 138.173 26.4974 123.545 35.9284 116.484C37.4827 115.32 35.2564 113.324 33.714 114.479Z" fill="#1A1A1A"/>
<path d="M26.7735 131.327C24.8848 133.393 23.8859 135.9 24.1019 138.597C24.2469 140.406 27.3798 140.42 27.2335 138.597C27.0791 136.673 27.6139 134.835 28.9879 133.332C30.2637 131.936 28.0604 129.919 26.7735 131.327Z" fill="#1A1A1A"/>
<path d="M26.6498 144.949H26.9903C29.0051 144.949 29.0084 142.114 26.9903 142.114H26.6498C24.635 142.114 24.6313 144.949 26.6498 144.949Z" fill="#1A1A1A"/>
<path d="M54.1836 103.878C55.5638 101.602 56.688 98.7018 56.0181 96.0749C55.4746 93.9445 53.5523 92.2371 51.027 92.3848C44.0363 92.7925 49.7388 101.83 50.9962 104.43C51.8025 106.098 54.5012 104.656 53.7002 102.999C53.0762 101.709 52.4515 100.419 51.8288 99.1288C51.4989 98.4455 50.0551 96.2214 50.7649 95.4689C52.3287 93.8099 53.0927 97.5896 53.029 98.2457C52.8861 99.7307 52.2629 101.155 51.4796 102.447C50.509 104.047 53.2122 105.48 54.1836 103.878Z" fill="#1A1A1A"/>
<path d="M58.4044 113.271C61.7204 111.733 65.1474 110.065 67.5232 107.389C69.0668 105.65 71.0869 102.41 68.6257 100.556C66.2646 98.7783 62.9059 100.097 61.0291 101.798C58.2861 104.285 56.8792 108.049 56.2483 111.433C55.9156 113.218 58.933 113.985 59.2682 112.186C59.6568 110.102 60.3054 108.091 61.3988 106.214C61.8999 105.353 62.475 104.492 63.2431 103.804C63.9952 103.13 66.606 101.627 66.3915 103.654C66.2166 105.31 63.5672 107.126 62.2174 108.002C60.5276 109.097 58.6693 109.966 56.8238 110.823C55.03 111.656 56.6122 114.103 58.4044 113.271Z" fill="#1A1A1A"/>
<path d="M10.6507 98.4208C9.38558 103.959 8.86762 109.518 9.13584 115.171C9.22169 116.989 12.3537 116.999 12.2675 115.171C12.0111 109.773 12.4609 104.47 13.6706 99.1744C14.0773 97.3934 11.0594 96.6319 10.6507 98.4208Z" fill="#1A1A1A"/>
<path d="M9.97401 126.455H10.3145C12.3293 126.455 12.3326 123.619 10.3145 123.619H9.97401C7.95924 123.619 7.95555 126.455 9.97401 126.455Z" fill="#1A1A1A"/>
<path d="M79.6182 150.127C80.892 151.915 82.3744 153.562 84.063 155.043C84.9445 155.817 86.2938 154.598 85.4111 153.823C83.8355 152.441 82.4528 150.925 81.2641 149.255C80.6016 148.325 78.9507 149.189 79.6182 150.127Z" fill="#1A1A1A"/>
<path d="M78.7414 143.869C81.0519 146.767 83.4996 149.567 86.0894 152.265C86.8957 153.105 88.2389 151.88 87.4371 151.045C84.9541 148.458 82.6033 145.777 80.3873 142.998C79.6759 142.105 78.0217 142.966 78.7414 143.869Z" fill="#1A1A1A"/>
<path d="M79.3222 139.828C81.7641 140.773 83.1841 142.691 84.6891 144.572C85.578 145.682 87.0694 148.133 88.756 148.138C89.06 148.139 89.451 147.979 89.5792 147.71C89.7714 147.306 89.8018 147.026 89.5664 146.626C89.426 146.387 89.0546 146.161 88.7437 146.198C88.7108 146.202 88.678 146.206 88.6451 146.21C87.4465 146.353 87.4309 148.081 88.6451 147.936C88.678 147.932 88.7108 147.928 88.7437 147.925C88.4693 147.782 88.1953 147.64 87.9209 147.497C87.9419 147.533 87.9628 147.569 87.9838 147.604V146.733C87.9669 146.769 87.9501 146.804 87.9333 146.84C88.2072 146.697 88.4816 146.555 88.756 146.412C88.3691 146.411 86.8657 144.358 86.6246 144.062C86.0187 143.317 85.4412 142.553 84.8168 141.819C83.5731 140.359 82.1839 139.073 80.2841 138.337C79.1685 137.905 78.1963 139.392 79.3222 139.828Z" fill="#1A1A1A"/>
</svg>
