<svg width="141" height="170" viewBox="0 0 141 170" fill="none" xmlns="http://www.w3.org/2000/svg">
<path d="M74.9002 58.5406C76.9612 45.2174 81.7552 29.7607 92.4353 19.9523C102.45 10.7559 118.556 6.09388 132.376 3.70582L129.769 2.37873C130.997 6.78409 132.226 11.1884 133.454 15.5933C133.947 14.8144 134.441 14.0355 134.934 13.2566C123.194 14.8274 109.253 18.5744 100.923 26.5494C91.7178 35.3641 88.4868 49.6631 87.3195 61.3393C87.0761 63.7737 91.3154 63.7592 91.5571 61.3393C92.6743 50.1649 95.9287 35.847 105.377 27.9582C113.258 21.3781 125.582 18.3222 136.06 16.9199C137.212 16.7659 137.791 15.4817 137.54 14.5832C136.312 10.1783 135.084 5.77345 133.855 1.36858C133.562 0.317577 132.352 -0.148872 131.249 0.0419922C116.693 2.55763 100.076 7.67263 89.4389 17.2663C78.1679 27.432 72.9609 43.6565 70.8144 57.5309C70.4442 59.9215 74.5267 60.956 74.9002 58.5406Z" fill="#1A1A1A"/>
<path d="M79.2949 34.1263C62.8136 33.784 44.0001 31.9207 27.8411 35.2421C19.7333 36.9086 21.8332 44.8108 21.0306 50.9021C20.8367 52.3782 20.9773 52.4554 20.9467 52.5137C20.2742 53.8303 18.6939 55.1719 17.7179 56.3375C13.9672 60.8191 10.2476 65.3306 6.73206 69.9637C3.05418 74.8101 0.450144 78.2078 0.500724 83.9971C0.572425 92.1804 1.4862 100.397 2.21377 108.548C3.84234 126.787 5.85942 144.994 7.72476 163.214C8.04269 166.32 7.54413 168.108 10.9797 169.181C16.5385 170.917 25.4333 169.372 31.1789 169.258C52.9855 168.825 74.8355 168.084 96.5938 166.68C103.352 166.245 109.365 165.482 115.891 163.771C122.759 161.971 136.651 159.477 139.459 152.428C141.452 147.427 139.986 139.912 139.9 134.761C139.725 124.31 139.344 113.861 138.938 103.415C138.572 93.9978 138.137 84.5836 137.756 75.1669C137.494 68.6959 134.227 65.352 129.37 60.4244C125.695 56.6948 120.78 53.2747 117.598 49.2202C116.337 47.613 117.496 50.931 117.312 48.0211C117.153 45.51 117.075 42.9988 116.623 40.5091C114.724 30.0513 106.26 33.1795 96.5471 34.1263C93.8647 34.3875 93.8352 38.1898 96.5471 37.9252C100.188 37.5704 104.993 36.3704 108.57 36.9255C114.593 37.8609 111.987 44.74 113.1 48.953C114.201 53.1182 119.351 56.2493 122.601 59.3894C127.206 63.8411 133.142 68.1169 133.487 74.401C133.852 81.0688 134.064 87.7476 134.339 94.4184C135.04 111.379 136.022 128.413 135.713 145.39C135.683 147.007 136.143 149.749 135.404 151.273C133.314 155.581 124.391 157.363 119.904 158.688C113.144 160.686 106.702 162.168 99.6469 162.677C80.8756 164.031 62.0065 164.625 43.188 165.162C34.8595 165.4 26.5194 165.641 18.1859 165.605C16.0221 165.595 13.8077 165.386 11.6511 165.444C12.4882 165.421 11.9501 167.918 12.1047 164.59C12.3759 158.711 10.8085 152.313 10.1965 146.462C9.25161 137.444 8.32784 128.425 7.46075 119.4C6.61812 110.632 5.7955 101.858 5.19966 93.0719C4.93564 89.1734 3.71227 83.8585 4.88951 80.0143C7.46019 71.6192 17.4017 63.25 23.011 56.3121C26.7806 51.6486 23.0966 41.884 27.6583 39.1486C30.3184 37.5534 37.0628 38.1918 40.1493 38.0672C45.9099 37.8355 51.6793 37.7702 57.4443 37.7498C64.7278 37.7224 72.0136 37.7742 79.2949 37.9252C82.0228 37.982 82.0217 34.1826 79.2949 34.1263Z" fill="#1A1A1A"/>
<path d="M23.1101 54.9798C40.2879 53.8585 57.4661 52.7372 74.6439 51.6155C77.3474 51.4396 77.3691 47.6387 74.6439 47.8166C57.4661 48.9379 40.2879 50.0591 23.1101 51.1809C20.4066 51.3573 20.3849 55.1577 23.1101 54.9798Z" fill="#1A1A1A"/>
<path d="M100.49 51.6763H115.229C117.955 51.6763 117.96 47.8769 115.229 47.8769H100.49C97.7634 47.8769 97.759 51.6763 100.49 51.6763Z" fill="#1A1A1A"/>
<path d="M109.978 163.752L104.767 113.086C103.749 103.197 102.732 93.3077 101.715 83.4181C101.527 81.5912 100.828 79.2514 101.098 77.4195C101.587 74.1085 104.924 70.1637 106.638 67.1058C109.694 61.6544 112.957 56.3072 116.345 51.0163C115.029 50.6973 113.713 50.3774 112.397 50.0575C113.863 69.7854 115.329 89.5138 116.795 109.242C116.975 111.669 121.214 111.687 121.033 109.242C119.566 89.5138 118.101 69.7854 116.635 50.0575C116.5 48.25 113.787 47.3809 112.686 49.0992C109.299 54.3891 106.035 59.7373 102.979 65.1882C100.998 68.7214 97.5507 72.9813 96.8709 76.9023C96.6113 78.4018 97.1499 80.2302 97.3033 81.7237L100.28 110.666C102.101 128.361 103.921 146.056 105.741 163.752C105.989 166.167 110.229 166.19 109.978 163.752Z" fill="#1A1A1A"/>
<path d="M2.8461 81.4084C34.7804 80.3071 66.7141 79.2063 98.6479 78.1049C101.366 78.0112 101.38 74.2119 98.6479 74.3055C66.7141 75.4069 34.7804 76.5082 2.8461 77.6096C0.128123 77.7027 0.114783 81.5026 2.8461 81.4084Z" fill="#1A1A1A"/>
<path d="M109.96 163.358C115.298 156.311 120.637 149.263 125.976 142.215C124.867 142.343 123.757 142.472 122.648 142.6C126.665 145.754 130.682 148.907 134.7 152.061C136.744 153.667 139.752 150.99 137.696 149.375C133.679 146.221 129.662 143.067 125.644 139.913C124.57 139.07 123.117 139.241 122.317 140.298C116.978 147.346 111.639 154.393 106.301 161.441C104.765 163.469 108.434 165.372 109.96 163.358Z" fill="#1A1A1A"/>
<path d="M119.808 129.121C120.858 133.338 121.629 137.583 122.098 141.884C122.361 144.295 126.601 144.32 126.335 141.884C125.83 137.247 125.026 132.659 123.895 128.111C123.301 125.726 119.215 126.735 119.808 129.121Z" fill="#1A1A1A"/>
<path d="M76.9096 90.7574C59.0955 99.8352 41.2813 108.913 23.4677 117.99C22.734 118.365 22.1488 119.378 22.4939 120.136C29.7969 136.18 48.2864 143.233 65.8193 135.157C83.6401 126.948 86.7766 107.518 80.0217 91.8926C79.0468 89.6371 74.9481 90.6179 75.9358 92.9028C83.953 111.449 74.1083 138.888 46.6528 134.792C40.8183 133.921 35.9365 130.949 32.1258 126.972C30.8124 125.602 26.6798 121.577 26.7677 119.485C26.7482 119.947 33.0107 117.498 35.0372 116.465C39.7528 114.062 44.4684 111.659 49.1835 109.256C59.1383 104.183 69.0931 99.1111 79.0484 94.038C81.419 92.83 79.2863 89.5464 76.9096 90.7574Z" fill="#1A1A1A"/>
<path d="M23.8847 120.793C36.3802 127.295 53.5218 128.341 65.2024 119.9C73.9828 113.555 78.535 102.686 78.6583 92.7235C78.6889 90.2782 74.4519 90.2767 74.4207 92.7235C74.3235 100.609 71.0714 109.305 64.9167 114.989C54.7668 124.362 37.9832 123.735 26.0235 117.513C23.6601 116.283 21.5247 119.565 23.8847 120.793Z" fill="#1A1A1A"/>
<path d="M84.3358 27.6884C87.7863 29.3384 91.2363 30.9884 94.6869 32.6389C97.0919 33.7891 99.2352 30.5105 96.8251 29.3583C93.3751 27.7078 89.9246 26.0583 86.4746 24.4078C84.0695 23.2571 81.9263 26.5357 84.3358 27.6884Z" fill="#1A1A1A"/>
<path d="M91.6484 19.7144C94.184 22.2081 96.5157 24.8374 98.6429 27.6211C100.175 29.6259 103.848 27.7277 102.302 25.704C99.9729 22.6561 97.4206 19.7577 94.6448 17.0278C92.8034 15.2178 89.8136 17.9104 91.6484 19.7144Z" fill="#1A1A1A"/>
<path d="M99.1141 13.0396C100.807 16.7129 102.24 20.458 103.42 24.2892C104.144 26.6429 108.234 25.6432 107.506 23.2791C106.326 19.4478 104.892 15.7033 103.201 12.0295C102.173 9.80137 98.072 10.7781 99.1141 13.0396Z" fill="#1A1A1A"/>
<path d="M70.4441 54.9453C67.6622 55.7546 66.5334 58.6101 68.3587 60.7968C70.8955 63.8372 78.3902 63.5019 82.0192 63.5632C85.5876 63.6235 92.2663 63.8372 94.2756 60.4645C96.1488 57.3224 93.2763 54.6971 89.9319 54.3602C87.2261 54.0876 87.2478 57.889 89.9319 58.1591C89.9402 58.9281 89.5489 59.2894 88.7569 59.243C87.6224 59.5031 86.4674 59.6586 85.2913 59.7095C83.9301 59.8026 82.5594 59.7817 81.1971 59.7319C79.8226 59.6825 78.4536 59.5744 77.0857 59.4458C75.6455 59.3108 72.7102 58.2777 71.5702 58.6091C74.1537 57.8576 73.0487 54.1878 70.4441 54.9453Z" fill="#1A1A1A"/>
<path d="M45.6832 107.95C44.6822 112.202 43.6806 116.454 42.6795 120.706C42.1176 123.091 46.2012 124.111 46.7654 121.716C47.767 117.464 48.768 113.212 49.7696 108.96C50.331 106.575 46.2474 105.555 45.6832 107.95Z" fill="#1A1A1A"/>
<path d="M50.9218 107.222C53.7281 111.401 56.2905 115.69 58.6138 120.102C59.7777 122.311 63.4323 120.385 62.2728 118.184C59.9489 113.773 57.3871 109.483 54.5808 105.304C53.1756 103.212 49.51 105.12 50.9218 107.222Z" fill="#1A1A1A"/>
<path d="M56.2156 104.919C60.9701 106.764 65.8192 108.107 70.9333 108.879C73.6001 109.281 74.7468 105.621 72.0594 105.215C67.3393 104.504 62.751 103.345 58.3544 101.639C55.8777 100.678 53.7166 103.95 56.2156 104.919Z" fill="#1A1A1A"/>
<path d="M34.9963 146.843C41.3661 153.119 50.8384 151.766 59.098 149.932C61.7437 149.345 60.6232 145.68 57.9713 146.269C51.2192 147.768 43.2853 149.371 37.9928 144.157C36.1536 142.345 33.1638 145.037 34.9963 146.843Z" fill="#1A1A1A"/>
<path d="M74.8225 147.183C75.1293 147.045 75.4362 146.907 75.743 146.769C76.7651 146.308 77.0542 145.014 76.5028 144.169C75.8942 143.237 74.6302 143.025 73.6042 143.488C73.2973 143.626 72.9905 143.764 72.6837 143.903C71.6616 144.363 71.372 145.656 71.9239 146.501C72.532 147.434 73.7965 147.645 74.8225 147.183Z" fill="#1A1A1A"/>
<path d="M7.24722 72.2544C8.89134 74.4601 10.8023 76.4734 12.9917 78.259C14.2178 79.2582 16.047 77.6276 14.8159 76.6239C12.7866 74.9684 10.999 73.1325 9.4744 71.0868C8.55618 69.8564 6.32066 71.0126 7.24722 72.2544Z" fill="#1A1A1A"/>
<path d="M10.1188 67.6451C13.048 71.3149 16.4224 74.6209 20.2804 77.5223C21.5438 78.4726 23.3775 76.845 22.1041 75.8872C18.4201 73.1164 15.1452 69.9848 12.346 66.4775C11.3883 65.278 9.15004 66.4311 10.1188 67.6451Z" fill="#1A1A1A"/>
<path d="M14.371 62.6282C18.6203 68.2311 23.5927 73.2758 29.3044 77.7155C30.5533 78.6868 32.3853 77.0572 31.128 76.0805C25.582 71.7698 20.7269 66.905 16.5982 61.4606C15.67 60.2371 13.4345 61.3928 14.371 62.6282Z" fill="#1A1A1A"/>
</svg>
