<svg width="100" height="100" viewBox="0 0 100 100" fill="none" xmlns="http://www.w3.org/2000/svg">
<circle cx="50" cy="50" r="50" fill="#F2F2F2"/>
<path d="M75.7935 53.7631C75.6936 53.27 75.4857 52.8051 75.1847 52.402C74.8836 51.9988 74.497 51.6674 74.0525 51.4316C73.9092 51.3573 73.7608 51.2932 73.6085 51.2396C73.8629 50.7168 73.9759 50.1365 73.9363 49.5565C73.8968 48.9765 73.706 48.417 73.383 47.9336C72.1511 46.0562 70.5485 44.4505 68.6735 43.2151C68.2543 42.9371 67.7787 42.7555 67.2809 42.6832C66.7831 42.6109 66.2755 42.6498 65.7945 42.7971C65.6404 42.8455 65.49 42.9052 65.3445 42.9756C65.2909 42.8211 65.2262 42.6708 65.151 42.5256C64.9186 42.085 64.5913 41.7015 64.1928 41.4026C63.7943 41.1037 63.3345 40.8969 62.8465 40.7971C60.648 40.3397 58.379 40.3373 56.1795 40.7901C55.6047 40.9019 55.0693 41.1625 54.6266 41.5458C54.1839 41.9291 53.8495 42.4217 53.6565 42.9746C53.1337 42.72 52.5533 42.6068 51.9732 42.6464C51.3931 42.686 50.8334 42.8769 50.35 43.2001C48.4723 44.4315 46.8664 46.034 45.631 47.9091C45.3527 48.3282 45.1709 48.804 45.0987 49.3019C45.0265 49.7999 45.0657 50.3076 45.2135 50.7886C45.2619 50.9427 45.3214 51.0931 45.3915 51.2386C45.2371 51.2922 45.0867 51.3569 44.9415 51.4321C44.5012 51.6646 44.1179 51.9918 43.8192 52.3902C43.5205 52.7886 43.3138 53.2482 43.214 53.7361C42.757 55.9345 42.7545 58.2031 43.2065 60.4026C43.3188 60.9773 43.5795 61.5126 43.9628 61.9554C44.346 62.3982 44.8384 62.733 45.391 62.9266C45.3202 63.0736 45.2599 63.2255 45.2105 63.3811C45.0636 63.8567 45.0239 64.3589 45.0942 64.8517C45.1645 65.3444 45.343 65.8155 45.617 66.2311C46.8486 68.1088 48.4513 69.7147 50.3265 70.9501C50.7458 71.2285 51.2216 71.4103 51.7196 71.4825C52.2176 71.5547 52.7255 71.5155 53.2065 71.3676C53.3606 71.3192 53.511 71.2597 53.6565 71.1896C53.8467 71.7393 54.1776 72.2297 54.6162 72.6118C55.0548 72.9939 55.5859 73.2545 56.1565 73.3676C58.3551 73.8252 60.624 73.8276 62.8235 73.3746C63.3983 73.2627 63.9337 73.0022 64.3764 72.6189C64.8191 72.2356 65.1536 71.7429 65.3465 71.1901C65.87 71.4419 66.4499 71.5534 67.0294 71.5138C67.6089 71.4742 68.1682 71.2848 68.6525 70.9641C70.5302 69.7327 72.1361 68.1302 73.3715 66.2551C73.6984 65.7694 73.8925 65.2067 73.9346 64.6228C73.9767 64.0389 73.8653 63.4541 73.6115 62.9266C73.766 62.8728 73.9164 62.8079 74.0615 62.7326C74.502 62.5001 74.8855 62.1729 75.1843 61.7744C75.4831 61.3759 75.6898 60.9161 75.7895 60.4281C76.2451 58.2299 76.2465 55.9618 75.7935 53.7631ZM66.3065 44.4701C66.541 44.3985 66.7885 44.3797 67.0311 44.4153C67.2737 44.4508 67.5054 44.5397 67.7095 44.6756C69.3864 45.7799 70.8196 47.2157 71.921 48.8946C72.0526 49.0949 72.1384 49.3217 72.1723 49.559C72.2063 49.7963 72.1875 50.0381 72.1173 50.2672C72.0471 50.4964 71.9273 50.7073 71.7663 50.8848C71.6053 51.0624 71.4072 51.2023 71.186 51.2946L61.117 55.4661L65.2865 45.4001V45.3976C65.3771 45.177 65.5156 44.9793 65.692 44.8189C65.8685 44.6585 66.0784 44.5393 66.3065 44.4701ZM55.3945 43.3501C55.5095 43.1337 55.6711 42.9456 55.8677 42.7993C56.0642 42.653 56.2908 42.5522 56.531 42.5041C58.4979 42.0987 60.527 42.1008 62.493 42.5101C62.7279 42.5584 62.9492 42.6581 63.1411 42.8019C63.3331 42.9457 63.4909 43.13 63.6033 43.3419C63.7157 43.5537 63.78 43.7877 63.7916 44.0273C63.8031 44.2668 63.7616 44.5059 63.67 44.7276L59.5 54.7966L55.329 44.7261C55.2373 44.5062 55.1956 44.2687 55.207 44.0307C55.2183 43.7927 55.2824 43.5603 55.3945 43.3501ZM47.0945 48.8726C48.199 47.1956 49.6352 45.7625 51.3145 44.6616C51.5145 44.5296 51.7412 44.4433 51.9784 44.409C52.2156 44.3747 52.4575 44.3931 52.6867 44.463C52.9159 44.533 53.1269 44.6526 53.3046 44.8135C53.4823 44.9743 53.6222 45.1724 53.7145 45.3936L57.8855 55.4631L47.818 51.2931C47.597 51.2037 47.399 51.0657 47.2385 50.8894C47.078 50.7131 46.9593 50.503 46.891 50.2746C46.8191 50.0406 46.7998 49.7936 46.8346 49.5512C46.8695 49.3089 46.9575 49.0773 47.0925 48.8731L47.0945 48.8726ZM44.9215 60.0501C44.5168 58.0831 44.5188 56.0542 44.9275 54.0881C44.976 53.8532 45.0757 53.6319 45.2195 53.4399C45.3633 53.248 45.5478 53.0902 45.7596 52.9778C45.9715 52.8653 46.2056 52.8011 46.4451 52.7895C46.6847 52.778 46.9238 52.8195 47.1455 52.9111L57.2135 57.0816L47.1435 61.2526C46.924 61.3456 46.6864 61.3881 46.4483 61.3767C46.2102 61.3654 45.9777 61.3006 45.768 61.1871C45.5516 61.072 45.3634 60.9103 45.217 60.7137C45.0706 60.5171 44.9697 60.2904 44.9215 60.0501ZM52.6935 69.6946C52.4591 69.7665 52.2115 69.7854 51.9689 69.7499C51.7262 69.7143 51.4945 69.6252 51.2905 69.4891C49.6136 68.3845 48.1804 66.9486 47.079 65.2696C46.9472 65.0695 46.8611 64.8428 46.8269 64.6056C46.7927 64.3684 46.8113 64.1266 46.8812 63.8974C46.9512 63.6682 47.0708 63.4573 47.2316 63.2796C47.3924 63.102 47.5904 62.962 47.8115 62.8696L57.883 58.7001L53.7135 68.7676V68.7701C53.6239 68.9911 53.4857 69.1891 53.3091 69.3494C53.1325 69.5097 52.9221 69.6282 52.6935 69.6961V69.6946ZM63.6055 70.8136C63.4905 71.03 63.3288 71.2182 63.1322 71.3645C62.9356 71.5108 62.7089 71.6116 62.4685 71.6596C60.5018 72.0648 58.4729 72.0627 56.507 71.6536C56.2721 71.6053 56.0507 71.5057 55.8588 71.3619C55.6668 71.2182 55.5089 71.0338 55.3965 70.8219C55.284 70.6101 55.2198 70.376 55.2083 70.1364C55.1968 69.8969 55.2384 69.6577 55.33 69.4361L59.5 59.3696L63.671 69.4396C63.7641 69.659 63.8066 69.8967 63.7952 70.1348C63.7839 70.3729 63.7191 70.6054 63.6055 70.8151V70.8136ZM71.9055 65.2911C70.801 66.9681 69.3649 68.4012 67.6855 69.5021C67.4855 69.634 67.2588 69.7202 67.0216 69.7545C66.7844 69.7887 66.5426 69.7702 66.3134 69.7003C66.0842 69.6304 65.8732 69.5108 65.6956 69.35C65.5179 69.1892 65.3779 68.9912 65.2855 68.7701L61.117 58.7001L71.1845 62.8696C71.4055 62.9591 71.6035 63.097 71.7639 63.2733C71.9244 63.4496 72.0432 63.6597 72.1115 63.8881C72.1836 64.1227 72.2027 64.3704 72.1674 64.6133C72.1321 64.8561 72.0434 65.0882 71.9075 65.2926L71.9055 65.2911ZM74.07 60.0746C74.0217 60.3095 73.9221 60.5309 73.7784 60.7228C73.6346 60.9148 73.4502 61.0727 73.2384 61.1851C73.0265 61.2976 72.7924 61.3618 72.5529 61.3733C72.3133 61.3848 72.0742 61.3432 71.8525 61.2516L61.7845 57.0816L71.8525 52.9111C72.072 52.818 72.3096 52.7756 72.5477 52.7869C72.7859 52.7983 73.0184 52.8631 73.228 52.9766C73.4445 53.0916 73.6327 53.2533 73.7791 53.4499C73.9255 53.6465 74.0264 53.8732 74.0745 54.1136C74.4808 56.0804 74.4799 58.1096 74.072 60.0761L74.07 60.0746Z" fill="#1A1A1A"/>
<path d="M59.5 37.2081C56.4451 37.2055 53.4313 37.9117 50.6955 39.2711C48.0826 37.7883 45.1003 37.0833 42.1 37.2391C42.6375 36.0201 42.8943 34.6959 42.8515 33.3644C42.8086 32.0329 42.4672 30.728 41.8524 29.5461C41.2376 28.3642 40.3652 27.3355 39.2995 26.5361C38.2338 25.7366 37.0022 25.1867 35.6955 24.9271L26.2955 23.0586C26.1544 23.0307 26.0086 23.0381 25.871 23.0799C25.7334 23.1218 25.6082 23.1969 25.5065 23.2986C25.4048 23.4003 25.3297 23.5254 25.2878 23.6631C25.246 23.8007 25.2387 23.9465 25.2665 24.0876L27.1325 33.4901C27.5755 35.7372 28.8721 37.7253 30.75 39.0366C24.632 42.2526 20.625 49.2716 20.625 57.0831C20.625 68.0421 28.433 76.9581 38.0305 76.9581C38.8577 76.9572 39.6835 76.8903 40.5 76.7581C41.3164 76.8903 42.142 76.9572 42.969 76.9581C45.6776 76.9464 48.3371 76.2347 50.6895 74.8921C53.3734 76.22 56.3228 76.9243 59.3172 76.9522C62.3115 76.9801 65.2735 76.3309 67.9817 75.0532C70.69 73.7755 73.0744 71.9023 74.9569 69.5735C76.8394 67.2447 78.1713 64.5206 78.853 61.6047C79.5348 58.6889 79.5487 55.6566 78.8938 52.7346C78.239 49.8126 76.9322 47.0764 75.0712 44.7303C73.2102 42.3843 70.8431 40.4893 68.1467 39.1867C65.4504 37.8841 62.4945 37.2077 59.5 37.2081ZM40.6 31.0106C40.9769 31.9529 41.1478 32.9649 41.1013 33.9787C41.0548 34.9925 40.792 35.9847 40.3305 36.8886L28.7805 25.3386L35.355 26.6456C36.5249 26.8755 37.6184 27.3957 38.5348 28.1584C39.4513 28.9211 40.1614 29.9018 40.6 31.0106ZM28.85 33.1501L27.5435 26.5751L39.0935 38.1251C38.1101 38.6246 37.0244 38.8897 35.9214 38.8996C34.8185 38.9095 33.7282 38.6639 32.736 38.182C31.7438 37.7001 30.8767 36.9951 30.2025 36.1221C29.5283 35.2491 29.0654 34.2318 28.85 33.1501ZM42.97 75.2086C42.1922 75.2077 41.4159 75.1408 40.6495 75.0086C40.5512 74.9916 40.4508 74.9916 40.3525 75.0086C39.5859 75.1408 38.8094 75.2077 38.0315 75.2086C29.4 75.2081 22.375 67.0771 22.375 57.0831C22.375 49.4501 26.5035 42.6616 32.675 40.0581C34.0044 40.5739 35.4391 40.7595 36.856 40.599C38.2729 40.4385 39.6297 39.9367 40.81 39.1366C43.5539 38.6863 46.3698 39.0926 48.8745 40.3001C46.0413 42.0893 43.7072 44.5667 42.0896 47.5014C40.4721 50.436 39.6238 53.7324 39.6238 57.0833C39.6238 60.4342 40.4721 63.7306 42.0896 66.6652C43.7072 69.5999 46.0413 72.0773 48.8745 73.8666C47.0311 74.7499 45.0131 75.2083 42.969 75.2081L42.97 75.2086ZM59.501 75.2086C55.9162 75.2086 52.4119 74.1455 49.4313 72.1539C46.4506 70.1623 44.1275 67.3316 42.7557 64.0197C41.3838 60.7078 41.0249 57.0635 41.7243 53.5476C42.4236 50.0316 44.1499 46.8021 46.6847 44.2673C49.2195 41.7324 52.4491 40.0062 55.965 39.3068C59.4809 38.6075 63.1252 38.9664 66.4371 40.3382C69.7491 41.7101 72.5798 44.0332 74.5714 47.0139C76.563 49.9945 77.626 53.4988 77.626 57.0836C77.6204 61.889 75.7089 66.4961 72.3108 69.8939C68.9127 73.2918 64.3055 75.2029 59.5 75.2081L59.501 75.2086Z" fill="#1A1A1A"/>
</svg>
