<svg width="100" height="100" viewBox="0 0 100 100" fill="none" xmlns="http://www.w3.org/2000/svg">
<circle cx="50" cy="50" r="50" fill="#F2F2F2"/>
<path d="M54.95 70.3765C54.3985 70.076 53.7969 69.8785 53.1745 69.7935C52.9013 69.2279 52.5273 68.7167 52.071 68.285C51.912 68.1474 51.7086 68.0717 51.4983 68.0717C51.288 68.0717 51.0846 68.1474 50.9255 68.285C50.4697 68.717 50.096 69.2281 49.8225 69.7935C49.2001 69.8786 48.5983 70.0762 48.0465 70.3765C47.8663 70.4852 47.7313 70.6553 47.6663 70.8555C47.6012 71.0557 47.6106 71.2726 47.6925 71.4665C47.9624 72.0336 48.3331 72.547 48.7865 72.9815C48.6754 73.5999 48.6773 74.2333 48.792 74.851C48.8408 75.0554 48.961 75.2356 49.131 75.3592C49.301 75.4827 49.5096 75.5413 49.719 75.5245C50.3426 75.4425 50.9461 75.2479 51.5 74.95C52.0537 75.247 52.6566 75.441 53.2795 75.5225C53.3045 75.5245 53.3295 75.5255 53.3545 75.5255C53.5518 75.5252 53.7431 75.4582 53.8974 75.3353C54.0517 75.2125 54.16 75.0411 54.2045 74.849C54.3199 74.2313 54.322 73.5979 54.2105 72.9795C54.664 72.5449 55.0347 72.0316 55.3045 71.4645C55.386 71.2708 55.395 71.0543 55.33 70.8545C55.2649 70.6547 55.13 70.485 54.95 70.3765ZM52.6885 72.0065C52.5658 72.1113 52.4745 72.2479 52.4246 72.4014C52.3748 72.5548 52.3683 72.7191 52.406 72.876C52.4561 73.0813 52.4923 73.2898 52.5145 73.5C52.3226 73.4141 52.1364 73.3159 51.957 73.206C51.8195 73.1216 51.6614 73.077 51.5 73.077C51.3387 73.077 51.1806 73.1216 51.043 73.206C50.8635 73.3158 50.6771 73.414 50.485 73.5C50.5073 73.2907 50.5432 73.0831 50.5925 72.8785C50.6301 72.7216 50.6237 72.5574 50.5738 72.4039C50.524 72.2505 50.4327 72.1138 50.31 72.009C50.15 71.8723 49.9988 71.7255 49.8575 71.5695C50.0636 71.5261 50.2722 71.496 50.482 71.4795C50.6429 71.4668 50.7971 71.4099 50.9276 71.315C51.0581 71.2201 51.1598 71.0911 51.2215 70.942C51.3018 70.7468 51.3949 70.557 51.5 70.374C51.6052 70.5562 51.6984 70.7451 51.779 70.9395C51.8407 71.0885 51.9423 71.2176 52.0728 71.3124C52.2032 71.4073 52.3573 71.4643 52.518 71.477C52.7278 71.4932 52.9363 71.5233 53.142 71.567C53.001 71.723 52.85 71.8698 52.69 72.0065H52.6885Z" fill="#1A1A1A"/>
<path d="M43.2795 65.5244C43.3045 65.5264 43.3295 65.5274 43.3545 65.5274C43.5517 65.5269 43.7429 65.4599 43.8972 65.3371C44.0515 65.2143 44.1598 65.043 44.2045 64.8509C44.3193 64.2332 44.3211 63.5998 44.21 62.9814C44.6635 62.5469 45.0342 62.0336 45.304 61.4664C45.386 61.2725 45.3953 61.0556 45.3303 60.8554C45.2653 60.6552 45.1303 60.4851 44.95 60.3764C44.3982 60.0761 43.7965 59.8786 43.174 59.7934C42.9006 59.228 42.5269 58.7169 42.071 58.2849C41.9119 58.1473 41.7085 58.0715 41.498 58.0715C41.2876 58.0715 41.0842 58.1473 40.925 58.2849C40.4691 58.7169 40.0954 59.228 39.822 59.7934C39.201 59.879 38.6006 60.0766 38.05 60.3764C37.8698 60.4851 37.7348 60.6552 37.6697 60.8554C37.6047 61.0556 37.6141 61.2725 37.696 61.4664C37.9658 62.0336 38.3365 62.5469 38.79 62.9814C38.6789 63.5998 38.6808 64.2332 38.7955 64.8509C38.8437 65.0556 38.9638 65.2363 39.1339 65.3599C39.3041 65.4835 39.5129 65.5419 39.7225 65.5244C40.3449 65.442 40.9472 65.2474 41.5 64.9499C42.0535 65.2476 42.6565 65.4423 43.2795 65.5244ZM40.485 63.4999C40.5071 63.2906 40.543 63.083 40.5925 62.8784C40.6301 62.7215 40.6236 62.5573 40.5738 62.4039C40.5239 62.2504 40.4327 62.1138 40.31 62.0089C40.1508 61.8722 40.0005 61.7254 39.86 61.5694C40.066 61.526 40.2746 61.496 40.4845 61.4794C40.6454 61.4667 40.7996 61.4098 40.9301 61.3149C41.0606 61.2201 41.1623 61.091 41.224 60.9419C41.3035 60.7468 41.3957 60.557 41.5 60.3739C41.6049 60.5562 41.6979 60.7451 41.7785 60.9394C41.8403 61.0885 41.942 61.2176 42.0725 61.3124C42.203 61.4073 42.3572 61.4642 42.518 61.4769C42.7277 61.4935 42.9362 61.5235 43.142 61.5669C43.0018 61.7231 42.8515 61.87 42.692 62.0064C42.5694 62.1113 42.4781 62.2479 42.4283 62.4014C42.3784 62.5548 42.3719 62.719 42.4095 62.8759C42.4585 63.0814 42.4938 63.2898 42.515 63.4999C42.323 63.4142 42.1367 63.316 41.9575 63.2059C41.8198 63.1216 41.6615 63.077 41.5 63.077C41.3386 63.077 41.1802 63.1216 41.0425 63.2059C40.8632 63.3158 40.677 63.414 40.485 63.4999Z" fill="#1A1A1A"/>
<path d="M64.95 60.3765C64.3985 60.076 63.7968 59.8785 63.1745 59.7935C62.9012 59.2279 62.5273 58.7167 62.071 58.285C61.9119 58.1474 61.7086 58.0717 61.4983 58.0717C61.2879 58.0717 61.0846 58.1474 60.9255 58.285C60.4696 58.7171 60.0957 59.2281 59.822 59.7935C59.1999 59.8785 58.5984 60.0761 58.047 60.3765C57.8666 60.4851 57.7314 60.6551 57.6663 60.8553C57.6012 61.0556 57.6105 61.2726 57.6925 61.4665C57.9624 62.0336 58.3331 62.5469 58.7865 62.9815C58.6751 63.5999 58.6771 64.2334 58.7925 64.851C58.8393 65.0563 58.959 65.2378 59.1294 65.3616C59.2997 65.4854 59.5092 65.5433 59.719 65.5245C60.3426 65.4425 60.9461 65.2479 61.5 64.95C62.0536 65.247 62.6566 65.441 63.2795 65.5225C63.3045 65.5245 63.3295 65.5255 63.3545 65.5255C63.5517 65.5252 63.7431 65.4582 63.8974 65.3353C64.0517 65.2125 64.1599 65.0411 64.2045 64.849C64.3199 64.2313 64.3219 63.5979 64.2105 62.9795C64.6639 62.5449 65.0346 62.0316 65.3045 61.4645C65.386 61.2708 65.395 61.0543 65.3299 60.8545C65.2648 60.6547 65.13 60.485 64.95 60.3765ZM62.6885 62.0065C62.5658 62.1113 62.4744 62.2479 62.4246 62.4014C62.3747 62.5548 62.3683 62.7191 62.406 62.876C62.456 63.0813 62.4923 63.2898 62.5145 63.5C62.3226 63.4141 62.1363 63.3159 61.957 63.206C61.8195 63.1216 61.6613 63.077 61.5 63.077C61.3387 63.077 61.1805 63.1216 61.043 63.206C60.8636 63.3157 60.6774 63.4139 60.4855 63.5C60.5074 63.2907 60.5431 63.0831 60.5925 62.8785C60.6302 62.7216 60.6238 62.5573 60.5739 62.4039C60.5241 62.2504 60.4327 62.1138 60.31 62.009C60.1508 61.8723 60.0005 61.7255 59.86 61.5695C60.0659 61.5261 60.2743 61.496 60.484 61.4795C60.6448 61.4668 60.7989 61.4098 60.9293 61.3149C61.0597 61.2201 61.1614 61.091 61.223 60.942C61.3029 60.7468 61.3954 60.5571 61.5 60.374C61.6052 60.5562 61.6984 60.7451 61.779 60.9395C61.8407 61.0885 61.9423 61.2176 62.0727 61.3124C62.2031 61.4073 62.3573 61.4643 62.518 61.477C62.7278 61.4932 62.9362 61.5233 63.142 61.567C63.0009 61.723 62.8499 61.8698 62.69 62.0065H62.6885Z" fill="#1A1A1A"/>
<path d="M72.375 58.5C72.3715 55.7624 71.3367 53.1266 69.4769 51.1178C67.6171 49.109 65.0687 47.8746 62.3395 47.6605C62.1369 45.0864 61.0262 42.6681 59.2055 40.8372C57.3849 39.0063 54.9729 37.882 52.4 37.665C52.9 29.2965 60.837 27.258 61.1855 27.173C61.4037 27.1118 61.5897 26.9685 61.7043 26.773C61.819 26.5776 61.8533 26.3452 61.8001 26.125C61.7469 25.9047 61.6104 25.7137 61.4192 25.5921C61.228 25.4704 60.9971 25.4277 60.775 25.473C58.0319 26.2755 55.5682 27.8298 53.6625 29.96C53.2402 29.2209 52.6445 28.5956 51.9268 28.1379C51.209 27.6803 50.3908 27.404 49.5425 27.333C49.1921 25.9539 48.5158 24.679 47.5704 23.6156C46.625 22.5522 45.4382 21.7312 44.1096 21.2217C42.7811 20.7122 41.3496 20.529 39.9356 20.6876C38.5215 20.8462 37.1662 21.3418 35.9835 22.133L28.0135 27.4595C27.894 27.5395 27.796 27.6478 27.7283 27.7747C27.6606 27.9017 27.6251 28.0433 27.6251 28.1872C27.6251 28.3311 27.6606 28.4727 27.7283 28.5997C27.796 28.7266 27.894 28.8349 28.0135 28.915L35.983 34.242C37.1615 35.0304 38.5114 35.5255 39.9202 35.6859C41.329 35.8463 42.7557 35.6674 44.0812 35.1642C45.4068 34.6609 46.5927 33.8479 47.5401 32.793C48.4874 31.738 49.1687 30.4718 49.527 29.1C50.2087 29.1824 50.8508 29.4644 51.3726 29.9106C51.8945 30.3568 52.2728 30.9474 52.46 31.608C51.3582 33.4419 50.7358 35.5237 50.65 37.6615C48.0674 37.8672 45.6429 38.9871 43.8119 40.82C41.9809 42.6529 40.8635 45.0787 40.6605 47.6615C37.9296 47.8715 35.3785 49.1046 33.5175 51.1142C31.6564 53.1239 30.6225 55.7619 30.6225 58.5009C30.6225 61.24 31.6564 63.878 33.5175 65.8877C35.3785 67.8973 37.9296 69.1305 40.6605 69.3405C40.8705 72.0714 42.1036 74.6224 44.1133 76.4835C46.1229 78.3445 48.761 79.3784 51.5 79.3784C54.239 79.3784 56.8771 78.3445 58.8868 76.4835C60.8964 74.6224 62.1295 72.0714 62.3395 69.3405C65.0689 69.1263 67.6174 67.8918 69.4772 65.8827C71.3371 63.8737 72.3717 61.2377 72.375 58.5ZM36.956 23.5875C37.8732 22.9744 38.9199 22.5821 40.014 22.4413C41.1082 22.3004 42.2201 22.4149 43.2627 22.7757C44.3052 23.1364 45.25 23.7337 46.0231 24.5208C46.7961 25.3078 47.3764 26.2631 47.7185 27.312H31.3835L36.956 23.5875ZM43.756 33.4085C42.6617 33.8829 41.4657 34.0746 40.2779 33.966C39.0901 33.8574 37.9487 33.452 36.9585 32.787L31.386 29.062H47.721C47.4081 30.0276 46.8922 30.9151 46.2079 31.6648C45.5235 32.4145 44.6867 33.009 43.7535 33.4085H43.756ZM51.5 39.375C53.7745 39.378 55.9661 40.2295 57.6459 41.763C59.3257 43.2965 60.3728 45.4016 60.5825 47.6665C58.6163 47.8353 56.7328 48.535 55.1331 49.6908C53.5335 50.8467 52.2778 52.4152 51.5 54.229C50.7222 52.4151 49.4664 50.8465 47.8667 49.6907C46.267 48.5349 44.3834 47.8353 42.417 47.6665C42.627 45.4017 43.6744 43.2967 45.3542 41.7633C47.0341 40.2298 49.2255 39.3782 51.5 39.375ZM32.375 58.5C32.375 56.6952 32.9102 54.931 33.9129 53.4304C34.9155 51.9298 36.3407 50.7602 38.008 50.0696C39.6754 49.3789 41.5101 49.1982 43.2802 49.5503C45.0503 49.9024 46.6762 50.7714 47.9524 52.0476C49.2285 53.3238 50.0976 54.9497 50.4497 56.7197C50.8018 58.4898 50.6211 60.3246 49.9304 61.9919C49.2398 63.6593 48.0702 65.0844 46.5696 66.0871C45.069 67.0898 43.3048 67.625 41.5 67.625C39.0808 67.6222 36.7614 66.6599 35.0507 64.9492C33.3401 63.2386 32.3778 60.9192 32.375 58.5ZM51.5 77.625C49.2255 77.6217 47.0341 76.7701 45.3542 75.2366C43.6744 73.7032 42.627 71.5982 42.417 69.3335C44.3834 69.1646 46.267 68.465 47.8667 67.3092C49.4664 66.1534 50.7222 64.5848 51.5 62.771C52.2778 64.5847 53.5335 66.1533 55.1331 67.3091C56.7328 68.4649 58.6163 69.1646 60.5825 69.3335C60.3728 71.5983 59.3257 73.7034 57.6459 75.2369C55.9661 76.7704 53.7745 77.6219 51.5 77.625ZM61.5 67.625C59.6953 67.625 57.931 67.0898 56.4304 66.0871C54.9298 65.0844 53.7603 63.6593 53.0696 61.9919C52.379 60.3246 52.1983 58.4898 52.5504 56.7197C52.9024 54.9497 53.7715 53.3238 55.0477 52.0476C56.3238 50.7714 57.9497 49.9024 59.7198 49.5503C61.4899 49.1982 63.3246 49.3789 64.992 50.0696C66.6594 50.7602 68.0845 51.9298 69.0872 53.4304C70.0898 54.931 70.625 56.6952 70.625 58.5C70.6224 60.9192 69.6601 63.2387 67.9494 64.9494C66.2387 66.6601 63.9193 67.6223 61.5 67.625Z" fill="#1A1A1A"/>
</svg>
