<svg width="264" height="307" viewBox="0 0 264 307" fill="none" xmlns="http://www.w3.org/2000/svg">
<g clip-path="url(#clip0_1_1622)">
<path d="M262.439 110.399C259.671 91.0655 253.878 73.9807 245.045 59.1249C236.212 44.2756 225.169 32.1622 211.916 22.7718C198.663 13.3878 183.686 6.87622 166.986 3.23051C150.279 -0.408697 132.678 -0.974075 114.189 1.54738C95.6865 4.06883 78.9212 9.46916 63.8797 17.7289C48.8253 25.9951 36.2659 36.5748 26.195 49.4615C16.1112 62.3547 8.80113 77.1325 4.24527 93.8014C-0.304108 110.47 -1.19195 128.471 1.5623 147.805C4.04437 167.138 9.70193 184.158 18.5415 198.871C27.3745 213.583 38.4174 225.632 51.6703 235.016C64.9231 244.406 79.9645 250.918 96.8076 254.557C113.638 258.19 131.31 258.762 149.812 256.24C168.302 253.719 185.073 248.325 200.121 240.059C215.163 231.799 227.722 221.291 237.806 208.541C247.883 195.797 255.2 181.084 259.756 164.415C264.305 147.746 265.199 129.745 262.445 110.412L262.439 110.399Z" fill="#E91B8D"/>
<path d="M108.349 77.0343C108.012 74.6883 107.312 72.6088 106.236 70.8087C105.161 69.0086 103.826 67.5334 102.212 66.3961C100.605 65.2589 98.7837 64.466 96.7553 64.0241C94.7268 63.5822 92.5882 63.5108 90.346 63.8227C88.0972 64.1281 86.0623 64.7845 84.2348 65.7853C82.4072 66.7925 80.8843 68.0728 79.6595 69.6389C78.4346 71.2051 77.5468 72.9987 76.9959 75.0263C76.4451 77.0538 76.3349 79.2373 76.6719 81.5833C76.9765 83.9293 77.6634 85.9959 78.7327 87.783C79.8085 89.5701 81.15 91.0323 82.7572 92.176C84.3644 93.3133 86.1919 94.1061 88.2398 94.548C90.2812 94.9899 92.4327 95.0614 94.675 94.7495C96.9238 94.4441 98.9587 93.7877 100.786 92.7869C102.614 91.7861 104.137 90.5059 105.361 88.9592C106.586 87.4126 107.474 85.6255 108.025 83.5979C108.576 81.5703 108.686 79.3868 108.349 77.0408V77.0343Z" fill="black"/>
<path d="M187.821 77.0343C187.484 74.6883 186.784 72.6088 185.708 70.8087C184.632 69.0086 183.297 67.5334 181.683 66.3961C180.076 65.2589 178.255 64.466 176.227 64.0241C174.198 63.5822 172.06 63.5108 169.818 63.8227C167.569 64.1281 165.534 64.7845 163.706 65.7853C161.879 66.7925 160.356 68.0728 159.131 69.6389C157.906 71.2051 157.018 72.9987 156.467 75.0263C155.917 77.0538 155.806 79.2373 156.143 81.5833C156.448 83.9293 157.135 85.9959 158.204 87.783C159.28 89.5701 160.622 91.0323 162.229 92.176C163.836 93.3133 165.663 94.1061 167.711 94.548C169.753 94.9899 171.904 95.0614 174.147 94.7495C176.395 94.4441 178.43 93.7877 180.258 92.7869C182.085 91.7861 183.608 90.5059 184.833 88.9592C186.058 87.4126 186.946 85.6255 187.497 83.5979C188.047 81.5703 188.158 79.3868 187.821 77.0408V77.0343Z" fill="black"/>
<path d="M111.233 195.926C96.8006 195.926 80.9685 191.39 64.5402 182.448C61.8054 180.96 60.7944 177.528 62.2785 174.786C63.7625 172.044 67.1843 171.03 69.9191 172.518C90.981 183.988 110.507 187.4 126.397 182.389C144.277 176.749 163.317 159.358 172.475 151.001C176.324 147.486 179.668 144.178 182.617 141.26C186.628 137.289 189.797 134.157 192.694 131.993C194.34 130.765 199.35 127.028 204.748 129.419C211.624 132.467 213.367 142.202 210.587 161.971C210.153 165.064 207.301 167.209 204.216 166.773C201.132 166.338 198.987 163.479 199.427 160.385C201.164 148.044 200.587 142.709 200.049 140.578C197.755 142.144 193.815 146.043 190.529 149.292C187.503 152.288 184.075 155.68 180.057 159.345C170.31 168.249 150.026 186.77 129.774 193.158C123.922 195.003 117.713 195.92 111.226 195.92L111.233 195.926Z" fill="black"/>
<path d="M57.1847 284.372C54.5212 284.372 52.266 282.312 52.0586 279.602C51.4429 271.459 52.1493 263.362 54.1453 255.538C57.1977 243.593 63.3218 232.383 71.8568 223.129C73.788 221.037 77.0413 220.913 79.128 222.843C81.2148 224.78 81.3379 228.042 79.4132 230.135C74.2676 235.711 67.437 245.094 64.1125 258.098C62.3951 264.831 61.786 271.804 62.3174 278.822C62.5312 281.662 60.4056 284.138 57.5736 284.352C57.4439 284.365 57.3079 284.365 57.1782 284.365L57.1847 284.372Z" fill="black"/>
<path d="M192.085 284.372C191.955 284.372 191.826 284.372 191.689 284.359C188.857 284.144 186.732 281.669 186.946 278.829C187.477 271.81 186.868 264.837 185.151 258.105C182.519 247.811 177.231 238.147 169.85 230.141C167.919 228.049 168.048 224.786 170.135 222.85C172.222 220.913 175.475 221.043 177.406 223.136C185.941 232.39 192.065 243.593 195.118 255.544C197.114 263.368 197.82 271.466 197.204 279.608C197.004 282.318 194.742 284.378 192.078 284.378L192.085 284.372Z" fill="black"/>
<path d="M37.4707 307C57.1417 307 73.0881 299.589 73.0881 290.448C73.0881 281.307 57.1417 273.896 37.4707 273.896C17.7998 273.896 1.85339 281.307 1.85339 290.448C1.85339 299.589 17.7998 307 37.4707 307Z" fill="black"/>
<path d="M212.661 307C232.332 307 248.278 299.589 248.278 290.448C248.278 281.307 232.332 273.896 212.661 273.896C192.99 273.896 177.043 281.307 177.043 290.448C177.043 299.589 192.99 307 212.661 307Z" fill="black"/>
</g>
<defs>
<clipPath id="clip0_1_1622">
<rect width="264" height="307" fill="white"/>
</clipPath>
</defs>
</svg>
