<svg width="100" height="100" viewBox="0 0 100 100" fill="none" xmlns="http://www.w3.org/2000/svg">
<circle cx="50" cy="50" r="50" fill="#F2F2F2"/>
<path d="M84.1185 68.7145L69.477 54.0725C69.3765 48.4801 67.1448 43.137 63.2377 39.1344C59.3306 35.1319 54.0429 32.7719 48.4545 32.5365C48.488 31.5539 48.6322 30.5782 48.8845 29.628C50.7345 30.669 52.806 31.109 54.5925 29.722C55.7895 28.7925 56.1795 27.548 55.6355 26.393C54.9715 24.9815 53.0575 24.1885 51.2765 24.5855C50.6147 24.7485 49.9929 25.0445 49.4492 25.4556C48.9055 25.8667 48.4512 26.3842 48.114 26.9765C47.022 26.0672 46.0176 25.0577 45.114 23.961C44.9704 23.7801 44.7611 23.6632 44.5317 23.636C44.3024 23.6088 44.0715 23.6733 43.8896 23.8156C43.7076 23.9579 43.5893 24.1664 43.5604 24.3956C43.5316 24.6247 43.5945 24.856 43.7355 25.039C44.8015 26.3646 46.0163 27.5633 47.356 28.6115C46.9502 29.8812 46.7292 31.2028 46.7 32.5355C43.395 32.6623 40.1615 33.5351 37.2416 35.0885C34.3217 36.6419 31.791 38.8357 29.8389 41.5057C27.8869 44.1757 26.5642 47.2526 25.9697 50.5062C25.3753 53.7597 25.5245 57.1056 26.4063 60.2934C27.288 63.4811 28.8795 66.428 31.0614 68.9136C33.2434 71.3992 35.9593 73.359 39.006 74.6463C42.0526 75.9336 45.351 76.515 48.6541 76.3471C51.9573 76.1791 55.1797 75.2662 58.08 73.6765C62.2407 75.9496 67.0253 76.8151 71.7186 76.1437C76.412 75.4723 80.762 73.3 84.1185 69.9515C84.1998 69.8703 84.2643 69.7739 84.3083 69.6678C84.3523 69.5617 84.375 69.4479 84.375 69.333C84.375 69.2181 84.3523 69.1043 84.3083 68.9982C84.2643 68.8921 84.1998 68.7957 84.1185 68.7145ZM51.6585 26.293C52.7395 26.051 53.7685 26.535 54.0525 27.1385C54.233 27.521 54.0525 27.925 53.519 28.3385C52.3905 29.2145 50.934 28.8275 49.551 27.9975C49.7621 27.5808 50.059 27.2134 50.4223 26.9196C50.7855 26.6259 51.2068 26.4123 51.6585 26.293ZM53.104 69.95C53.5835 70.4295 54.082 70.878 54.593 71.3035C52.9093 72.5608 51.0341 73.5388 49.0395 74.2C50.0895 71.3325 51.9305 64.818 51.9305 54.447C51.9305 44.0505 50.0805 37.53 49.0305 34.673C52.871 35.896 62.115 40.3085 62.115 54.447C62.1253 56.4211 61.9191 58.3904 61.5 60.3195L53.105 68.7145C52.9411 68.8783 52.849 69.1004 52.8488 69.332C52.8486 69.5637 52.9404 69.786 53.104 69.95ZM44.9305 54.4445C44.9305 44.941 46.55 38.72 47.5555 35.7725C48.5615 38.72 50.1805 44.941 50.1805 54.4445C50.1805 63.948 48.5615 70.1695 47.5555 73.116C46.55 70.169 44.9305 63.95 44.9305 54.4445ZM43.1805 54.4445C43.1805 64.8405 45.0305 71.3605 46.0805 74.218C42.2405 72.995 32.996 68.583 32.996 54.4445C32.996 40.306 42.2415 35.8945 46.0805 34.6705C45.0325 37.5275 43.1805 44.05 43.1805 54.4445ZM68.6115 55.682L79.732 66.8025C76.6768 69.5442 72.7165 71.0607 68.6115 71.0607C64.5065 71.0607 60.5462 69.5442 57.491 66.8025L68.6115 55.682ZM67.7275 54.091L63.6365 58.182C63.7894 56.942 63.8662 55.6939 63.8665 54.4445C63.8665 44.087 59.0985 38.5205 54.741 35.5905C58.5026 37.0293 61.7485 39.5592 64.0624 42.8555C66.3763 46.1519 67.6525 50.0643 67.7275 54.091ZM27.3775 54.4445C27.3823 50.3565 28.6267 46.3661 30.9464 43C33.2661 39.6339 36.5521 37.0504 40.3705 35.5905C36.0125 38.5205 31.2445 44.087 31.2445 54.4445C31.2445 64.802 36.0125 70.368 40.3705 73.298C36.5516 71.8386 33.2652 69.2554 30.945 65.8893C28.6248 62.5233 27.38 58.5327 27.375 54.4445H27.3775ZM54.922 73.228C55.2915 72.975 55.663 72.697 56.035 72.4035C56.135 72.474 56.235 72.546 56.3385 72.6145C55.872 72.839 55.4 73.0405 54.9195 73.228H54.922ZM54.976 69.32L56.255 68.0405C59.6393 71.1101 64.0448 72.8105 68.6138 72.8105C73.1828 72.8105 77.5882 71.1101 80.9725 68.0405L82.252 69.32C78.5267 72.7271 73.6611 74.6166 68.6128 74.6166C63.5644 74.6166 58.6988 72.7271 54.9735 69.32H54.976Z" fill="#1A1A1A"/>
<path d="M69.4865 61.17V60.17C69.4865 59.938 69.3943 59.7154 69.2302 59.5513C69.0661 59.3872 68.8436 59.295 68.6115 59.295C68.3794 59.295 68.1569 59.3872 67.9928 59.5513C67.8287 59.7154 67.7365 59.938 67.7365 60.17V61.17C67.7365 61.4021 67.8287 61.6247 67.9928 61.7888C68.1569 61.9529 68.3794 62.045 68.6115 62.045C68.8436 62.045 69.0661 61.9529 69.2302 61.7888C69.3943 61.6247 69.4865 61.4021 69.4865 61.17Z" fill="#1A1A1A"/>
<path d="M72.6115 65.95C72.8436 65.95 73.0661 65.8578 73.2302 65.6937C73.3943 65.5296 73.4865 65.307 73.4865 65.075V64.075C73.4865 63.8429 73.3943 63.6203 73.2302 63.4562C73.0661 63.2921 72.8436 63.2 72.6115 63.2C72.3794 63.2 72.1569 63.2921 71.9928 63.4562C71.8287 63.6203 71.7365 63.8429 71.7365 64.075V65.075C71.7364 65.1899 71.759 65.3037 71.803 65.4099C71.8469 65.5161 71.9114 65.6126 71.9926 65.6938C72.0739 65.7751 72.1704 65.8395 72.2766 65.8835C72.3828 65.9274 72.4966 65.95 72.6115 65.95Z" fill="#1A1A1A"/>
<path d="M64.6115 63.2C64.3794 63.2 64.1569 63.2921 63.9928 63.4562C63.8287 63.6203 63.7365 63.8429 63.7365 64.075V65.075C63.7365 65.307 63.8287 65.5296 63.9928 65.6937C64.1569 65.8578 64.3794 65.95 64.6115 65.95C64.8436 65.95 65.0661 65.8578 65.2302 65.6937C65.3943 65.5296 65.4865 65.307 65.4865 65.075V64.075C65.4864 63.8429 65.3941 63.6204 65.2301 63.4564C65.066 63.2923 64.8435 63.2001 64.6115 63.2Z" fill="#1A1A1A"/>
</svg>
