<svg width="349" height="377" viewBox="0 0 349 377" fill="none" xmlns="http://www.w3.org/2000/svg">
<g clip-path="url(#clip0_6_441)">
<path d="M346.936 135.572C343.278 111.83 335.619 90.8496 323.942 72.6065C312.265 54.3714 297.667 39.496 280.147 27.9644C262.627 16.4408 242.828 8.44448 220.751 3.9675C198.665 -0.501496 175.396 -1.19579 150.954 1.90059C126.495 4.99697 104.332 11.6286 84.4474 21.7717C64.5459 31.9227 47.9427 44.9147 34.6294 60.7398C21.2989 76.5728 11.6352 94.7201 5.61246 115.19C-0.401682 135.659 -1.57538 157.765 2.06566 181.506C5.34687 205.248 12.826 226.149 24.5116 244.216C36.1886 262.284 50.787 277.079 68.3069 288.603C85.8267 300.134 105.711 308.131 127.977 312.6C150.226 317.061 173.589 317.763 198.048 314.667C222.49 311.57 244.662 304.947 264.555 294.796C284.439 284.653 301.042 271.748 314.373 256.091C327.694 240.441 337.367 222.374 343.389 201.904C349.404 181.435 350.586 159.329 346.945 135.587L346.936 135.572Z" fill="#EC5C24"/>
<path d="M143.234 94.5991C142.788 91.7182 141.863 89.1645 140.441 86.954C139.019 84.7434 137.254 82.9319 135.121 81.5353C132.996 80.1387 130.589 79.1651 127.907 78.6225C125.226 78.0798 122.399 77.992 119.434 78.3751C116.462 78.7502 113.772 79.5562 111.356 80.7851C108.94 82.0221 106.926 83.5942 105.307 85.5175C103.688 87.4408 102.514 89.6433 101.786 92.1332C101.058 94.6231 100.912 97.3045 101.358 100.185C101.76 103.066 102.669 105.604 104.082 107.799C105.504 109.993 107.278 111.789 109.402 113.193C111.527 114.59 113.943 115.564 116.65 116.106C119.349 116.649 122.193 116.737 125.157 116.354C128.13 115.979 130.82 115.172 133.236 113.944C135.652 112.715 137.665 111.142 139.285 109.243C140.904 107.344 142.077 105.149 142.806 102.659C143.534 100.169 143.679 97.488 143.234 94.6071V94.5991Z" fill="black"/>
<path d="M248.293 94.5991C247.848 91.7182 246.922 89.1645 245.5 86.954C244.078 84.7434 242.313 82.9319 240.18 81.5353C238.055 80.1387 235.648 79.1651 232.966 78.6225C230.285 78.0798 227.458 77.992 224.494 78.3751C221.521 78.7502 218.831 79.5562 216.415 80.7851C213.999 82.0221 211.985 83.5942 210.366 85.5175C208.747 87.4408 207.573 89.6433 206.845 92.1332C206.117 94.6231 205.971 97.3045 206.417 100.185C206.819 103.066 207.728 105.604 209.141 107.799C210.563 109.993 212.337 111.789 214.461 113.193C216.586 114.59 219.002 115.564 221.709 116.106C224.408 116.649 227.252 116.737 230.216 116.354C233.189 115.979 235.879 115.172 238.295 113.944C240.711 112.715 242.724 111.142 244.344 109.243C245.963 107.344 247.136 105.149 247.865 102.659C248.593 100.169 248.739 97.488 248.293 94.6071V94.5991Z" fill="black"/>
<path d="M147.047 240.6C127.968 240.6 107.038 235.029 85.3203 224.048C81.7049 222.221 80.3685 218.007 82.3303 214.64C84.2922 211.272 88.8157 210.027 92.431 211.855C120.274 225.94 146.087 230.13 167.094 223.977C190.73 217.05 215.901 195.694 228.006 185.432C233.095 181.114 237.516 177.052 241.414 173.469C246.717 168.593 250.906 164.746 254.736 162.089C256.912 160.581 263.534 155.992 270.671 158.929C279.76 162.672 282.065 174.626 278.39 198.902C277.816 202.701 274.046 205.335 269.968 204.8C265.89 204.265 263.054 200.754 263.637 196.955C265.933 181.8 265.17 175.249 264.459 172.631C261.427 174.554 256.218 179.343 251.874 183.333C247.873 187.012 243.341 191.177 238.03 195.678C225.145 206.611 198.33 229.355 171.557 237.2C163.821 239.467 155.614 240.592 147.038 240.592L147.047 240.6Z" fill="black"/>
<path d="M75.5966 349.212C72.0755 349.212 69.0941 346.683 68.82 343.355C68.0061 333.355 68.9399 323.412 71.5786 313.804C75.6137 299.136 83.7097 285.37 94.9926 274.006C97.5456 271.436 101.846 271.284 104.605 273.654C107.364 276.033 107.526 280.039 104.982 282.608C98.1796 289.456 89.1498 300.979 84.7549 316.948C82.4846 325.216 81.6793 333.778 82.3818 342.397C82.6645 345.885 79.8544 348.925 76.1106 349.189C75.9393 349.204 75.7594 349.204 75.588 349.204L75.5966 349.212Z" fill="black"/>
<path d="M253.931 349.212C253.759 349.212 253.588 349.212 253.408 349.196C249.664 348.933 246.854 345.893 247.137 342.405C247.839 333.786 247.034 325.223 244.764 316.956C241.286 304.315 234.295 292.448 224.537 282.616C221.984 280.047 222.155 276.041 224.914 273.662C227.672 271.284 231.973 271.444 234.526 274.013C245.809 285.377 253.905 299.136 257.94 313.812C260.579 323.42 261.513 333.363 260.699 343.363C260.433 346.691 257.443 349.22 253.922 349.22L253.931 349.212Z" fill="black"/>
<path d="M49.5353 377C75.5396 377 96.6203 367.9 96.6203 356.674C96.6203 345.448 75.5396 336.348 49.5353 336.348C23.5309 336.348 2.4502 345.448 2.4502 356.674C2.4502 367.9 23.5309 377 49.5353 377Z" fill="black"/>
<path d="M281.131 377C307.136 377 328.216 367.9 328.216 356.674C328.216 345.448 307.136 336.348 281.131 336.348C255.127 336.348 234.046 345.448 234.046 356.674C234.046 367.9 255.127 377 281.131 377Z" fill="black"/>
</g>
<defs>
<clipPath id="clip0_6_441">
<rect width="349" height="377" fill="white"/>
</clipPath>
</defs>
</svg>
