<svg width="214" height="63" viewBox="0 0 214 63" fill="none" xmlns="http://www.w3.org/2000/svg">
<g clip-path="url(#clip0_1_94)">
<path d="M47.7104 36.3232C48.212 39.7888 48.0491 43.0189 47.2217 46.0057C46.3944 48.9951 45.0628 51.6325 43.2323 53.9179C41.3992 56.2059 39.1162 58.0875 36.3807 59.5706C33.6452 61.0537 30.5969 62.0191 27.2332 62.472C23.8694 62.9249 20.6582 62.8214 17.597 62.1692C14.5357 61.5169 11.8003 60.3497 9.39057 58.6647C6.98088 56.9824 4.97452 54.8212 3.36892 52.1838C1.76332 49.5464 0.734286 46.4949 0.281822 43.0267C-0.219767 39.561 -0.0568798 36.3335 0.770483 33.3441C1.59785 30.3547 2.9268 27.7044 4.75992 25.3931C6.59046 23.0818 8.87347 21.1872 11.6115 19.7042C14.347 18.2237 17.3953 17.2557 20.7591 16.8028C24.1202 16.3498 27.3211 16.4508 30.3565 17.1056C33.3919 17.7578 36.1144 18.9277 38.5241 20.61C40.9338 22.295 42.9401 24.4665 44.5457 27.1298C46.1513 29.7931 47.2062 32.8575 47.7078 36.3232H47.7104ZM16.0922 42.729C16.9454 44.6883 18.3002 45.9695 20.1566 46.5725C22.013 47.1756 24.1202 46.9763 26.4808 45.9695C28.7896 44.9652 30.3823 43.5961 31.2614 41.862C32.1379 40.1278 32.1767 38.2824 31.3752 36.3232C30.5219 34.4156 29.1671 33.1474 27.3107 32.5185C25.4543 31.8921 23.3704 32.0785 21.0616 33.0827C18.701 34.0869 17.0825 35.469 16.206 37.2264C15.3269 38.9864 15.2907 40.8189 16.0922 42.7264V42.729Z" fill="black"/>
<path d="M64.5705 17.1806V25.5458H64.7205C66.0262 19.9682 69.7881 17.1806 76.0114 17.1806C77.3662 17.1806 78.646 17.2557 79.8509 17.4058L75.9364 33.458C75.5848 33.4088 75.2073 33.3829 74.8065 33.3829H73.3018C71.1946 33.3829 69.3744 34.074 67.8438 35.4561C66.3131 36.8382 65.5478 39.0097 65.5478 41.9758V61.3435L49.74 62.6998L49.2876 18.5395L64.5705 17.1832V17.1806Z" fill="black"/>
<path d="M108.007 16.5025C111.019 16.5025 113.778 17.1548 116.288 18.4618C118.796 19.7689 120.981 21.49 122.838 23.6227C124.694 25.758 126.137 28.1832 127.166 30.8956C128.195 33.6081 128.709 36.3723 128.709 39.1857C128.709 42.9542 128.071 46.2956 126.791 49.2073C125.511 52.1217 123.817 54.5701 121.71 56.5553C119.603 58.5405 117.155 60.0468 114.37 61.0769C111.585 62.1071 108.687 62.6221 105.675 62.6221C103.366 62.6221 101.197 62.2209 99.162 61.416C97.1298 60.6137 95.2346 59.757 93.4791 58.8537V62.0941H81.5857L81.1333 1.35623L98.5234 0L97.846 19.5929C99.3999 18.7388 100.907 18.0115 102.363 17.4084C103.819 16.8053 105.701 16.5051 108.01 16.5051L108.007 16.5025ZM106.652 46.8728C107.857 46.5208 108.884 46.0316 109.739 45.4027C110.593 44.7737 111.283 44.0594 111.81 43.2544C112.338 42.4521 112.676 41.598 112.826 40.6921C112.976 39.7888 112.927 38.8829 112.676 37.9796C112.426 37.0763 111.999 36.2843 111.397 35.6062C110.794 34.9281 110.052 34.3768 109.176 33.9472C108.297 33.5201 107.319 33.2691 106.241 33.194C105.16 33.1189 104.02 33.2587 102.815 33.6081C101.611 33.9601 100.569 34.4622 99.6921 35.1145C98.813 35.7693 98.1123 36.4966 97.5849 37.2989C97.0574 38.1039 96.7187 38.958 96.5688 39.8613C96.4188 40.7646 96.4679 41.6704 96.7187 42.5737C96.9695 43.477 97.3961 44.269 97.9985 44.9471C98.601 45.6252 99.3404 46.1662 100.219 46.5674C101.096 46.9711 102.089 47.2066 103.193 47.2843C104.297 47.3594 105.45 47.2222 106.655 46.8702L106.652 46.8728Z" fill="black"/>
<path d="M129.914 19.5178L146.702 18.1616L145.874 61.6438L129.914 63V19.5178Z" fill="black"/>
<path d="M172.335 62.9612C171.605 62.9871 170.817 63 169.964 63C165.147 63 161.393 61.9078 158.709 59.7207C156.023 57.5363 154.681 53.9826 154.681 49.0572V31.1959L150.541 31.2709L150.994 18.2341H154.531V13.2595L170.866 5.87527V18.2341L176.963 17.3308L176.135 31.1959H171.016V44.3829C171.016 45.8892 171.228 46.8961 171.655 47.3982C172.081 47.9003 173.048 48.1514 174.553 48.1514C175.204 48.1514 175.732 48.1255 176.133 48.0763C176.533 48.0271 176.911 47.9521 177.262 47.8511L174.628 62.7722C173.824 62.8732 173.058 62.9353 172.332 62.9612H172.335Z" fill="black"/>
<path d="M181.857 18.5369H213.248L200.602 46.3448H214.003L210.766 62.0191H176.663L189.461 34.2112H178.695L181.857 18.5369Z" fill="black"/>
<path d="M145.929 6.50162C145.758 5.36539 145.396 4.36116 144.848 3.48893C144.3 2.6167 143.615 1.90493 142.79 1.35364C141.968 0.802351 141.037 0.419293 140 0.20447C138.963 -0.0103523 137.87 -0.041411 136.722 0.106118C135.574 0.253647 134.532 0.571998 133.596 1.056C132.66 1.54258 131.882 2.16376 131.256 2.91952C130.63 3.67787 130.175 4.54492 129.893 5.52586C129.612 6.5068 129.555 7.5628 129.725 8.69903C129.88 9.83526 130.232 10.8343 130.78 11.6988C131.328 12.5632 132.016 13.2724 132.838 13.8237C133.66 14.375 134.596 14.7581 135.641 14.9729C136.686 15.1877 137.784 15.2188 138.932 15.0712C140.08 14.9237 141.122 14.6054 142.058 14.1214C142.992 13.6348 143.772 13.0188 144.398 12.2682C145.024 11.5202 145.479 10.6557 145.761 9.67479C146.042 8.69644 146.099 7.63785 145.929 6.50162Z" fill="#E91B8D"/>
</g>
<defs>
<clipPath id="clip0_1_94">
<rect width="214" height="63" fill="white"/>
</clipPath>
</defs>
</svg>
