<svg width="301" height="60" viewBox="0 0 301 60" fill="none" xmlns="http://www.w3.org/2000/svg">
<path d="M0 30C0 13.4315 13.387 0 29.9007 0C46.4143 0 59.8013 13.4315 59.8013 30C59.8013 46.5685 46.4143 60 29.9007 60C13.387 60 0 46.5685 0 30Z" fill="#E91B8D"/>
<path d="M23.559 29.4545C23.559 26.2414 26.1545 23.6359 29.357 23.6359C32.5595 23.6359 35.1564 26.2414 35.1564 29.4545C35.1564 32.6677 32.5595 35.2732 29.357 35.2732C26.1545 35.2732 23.559 32.6677 23.559 29.4545ZM20.424 29.4545C20.424 34.4047 24.4233 38.4173 29.357 38.4173C34.2908 38.4173 38.2901 34.4047 38.2901 29.4545C38.2901 24.5044 34.2908 20.4918 29.357 20.4918C24.4233 20.4918 20.424 24.5044 20.424 29.4545ZM36.556 20.1365C36.556 21.2926 37.4905 22.2316 38.6442 22.2316C39.7965 22.2316 40.7324 21.2926 40.7324 20.1365C40.7324 18.9804 39.7979 18.0428 38.6442 18.0428C37.4905 18.0428 36.556 18.9804 36.556 20.1365ZM22.3281 43.6621C20.6319 43.5845 19.7101 43.3012 19.0974 43.0615C18.2852 42.7442 17.7062 42.3664 17.0964 41.7559C16.4879 41.1454 16.1099 40.5645 15.7951 39.7496C15.5562 39.1349 15.2738 38.21 15.1965 36.5083C15.1122 34.6684 15.0953 34.1157 15.0953 29.4545C15.0953 24.7934 15.1136 24.2421 15.1965 22.4008C15.2738 20.6991 15.5577 19.7756 15.7951 19.1595C16.1113 18.3445 16.4879 17.7637 17.0964 17.1518C17.7048 16.5413 18.2838 16.162 19.0974 15.8462C19.7101 15.6065 20.6319 15.3231 22.3281 15.2456C24.1619 15.161 24.7127 15.1441 29.357 15.1441C34.0027 15.1441 34.5522 15.1624 36.3874 15.2456C38.0835 15.3231 39.0039 15.6079 39.618 15.8462C40.4302 16.162 41.0092 16.5413 41.6191 17.1518C42.2275 17.7623 42.6041 18.3445 42.9203 19.1595C43.1592 19.7742 43.4416 20.6991 43.5189 22.4008C43.6032 24.2421 43.6201 24.7934 43.6201 29.4545C43.6201 34.1143 43.6032 34.6669 43.5189 36.5083C43.4416 38.21 43.1578 39.1349 42.9203 39.7496C42.6041 40.5645 42.2275 41.1454 41.6191 41.7559C41.0106 42.3664 40.4302 42.7442 39.618 43.0615C39.0053 43.3012 38.0835 43.5845 36.3874 43.6621C34.5536 43.7467 34.0027 43.7636 29.357 43.7636C24.7127 43.7636 24.1619 43.7467 22.3281 43.6621ZM22.1847 12.1057C20.3326 12.1903 19.0679 12.485 17.962 12.9164C16.8181 13.362 15.8485 13.9598 14.8803 14.9298C13.9135 15.8998 13.3177 16.8726 12.8737 18.0217C12.4437 19.1313 12.15 20.4002 12.0657 22.2584C11.9799 24.1195 11.9603 24.7145 11.9603 29.4545C11.9603 34.1946 11.9799 34.7896 12.0657 36.6507C12.15 38.5089 12.4437 39.7778 12.8737 40.8874C13.3177 42.0351 13.9121 43.0093 14.8803 43.9793C15.8471 44.9493 16.8167 45.5457 17.962 45.9927C19.0693 46.4241 20.3326 46.7188 22.1847 46.8033C24.041 46.8879 24.6326 46.9091 29.357 46.9091C34.0828 46.9091 34.6744 46.8893 36.5293 46.8033C38.3814 46.7188 39.6461 46.4241 40.752 45.9927C41.8959 45.5457 42.8655 44.9493 43.8337 43.9793C44.8005 43.0093 45.3949 42.0351 45.8404 40.8874C46.2704 39.7778 46.5655 38.5089 46.6484 36.6507C46.7327 34.7882 46.7524 34.1946 46.7524 29.4545C46.7524 24.7145 46.7327 24.1195 46.6484 22.2584C46.5641 20.4002 46.2704 19.1313 45.8404 18.0217C45.3949 16.874 44.8005 15.9012 43.8337 14.9298C42.8669 13.9598 41.8959 13.362 40.7534 12.9164C39.6461 12.485 38.3814 12.1889 36.5307 12.1057C34.6758 12.0211 34.0828 12 29.3584 12C24.6326 12 24.041 12.0197 22.1847 12.1057Z" fill="white"/>
<path d="M79.7351 30C79.7351 13.4315 93.1221 0 109.636 0C126.149 0 139.536 13.4315 139.536 30C139.536 46.5685 126.149 60 109.636 60C93.1221 60 79.7351 46.5685 79.7351 30Z" fill="#E91B8D"/>
<path d="M126.489 29.4545C126.489 19.8147 118.7 12 109.092 12C99.4842 12 91.6954 19.8147 91.6954 29.4545C91.6954 37.9207 97.7029 44.979 105.674 46.5723V33.283H102.837V28.5375H105.674V25.6888C105.674 21.8174 107.276 19.5156 111.827 19.5156H115.617V24.2615H113.248C111.476 24.2615 111.359 24.9244 111.359 26.162L111.353 28.5371H115.643L115.141 33.2822H111.353V46.7631C119.893 45.6512 126.489 38.3258 126.489 29.4545Z" fill="white"/>
<path d="M159.47 30C159.47 13.4315 172.857 0 189.371 0C205.885 0 219.272 13.4315 219.272 30C219.272 46.5685 205.885 60 189.371 60C172.857 60 159.47 46.5685 159.47 30Z" fill="#E91B8D"/>
<path d="M190.485 43.2835L182.998 43.1462C180.574 43.0984 178.144 43.1939 175.768 42.6981C172.152 41.9574 171.896 38.3256 171.628 35.2791C171.259 30.9962 171.402 26.6356 172.099 22.3884C172.492 20.0053 174.04 18.5833 176.435 18.4286C184.517 17.867 192.653 17.9335 200.718 18.1955C201.57 18.2196 202.427 18.3508 203.267 18.5003C207.413 19.229 207.514 23.3447 207.783 26.8094C208.051 30.3098 207.937 33.8281 207.425 37.3047C207.014 40.1832 206.228 42.5971 202.91 42.8301C198.752 43.1348 194.69 43.3802 190.521 43.3021C190.521 43.2835 190.497 43.2835 190.485 43.2835ZM186.084 35.996C189.217 34.1919 192.29 32.4179 195.405 30.6259C192.266 28.8218 189.199 27.0477 186.084 25.2557V35.996Z" fill="white"/>
<path d="M241.199 30C241.199 13.4315 254.586 0 271.099 0C287.613 0 301 13.4315 301 30C301 46.5685 287.613 60 271.099 60C254.586 60 241.199 46.5685 241.199 30Z" fill="#E91B8D"/>
<path d="M264.443 45.2683C277.984 45.2683 285.388 34.0091 285.388 24.2455C285.388 23.9257 285.382 23.6074 285.368 23.2904C286.808 22.244 288.052 20.9484 289.04 19.4643C287.721 20.0529 286.301 20.4491 284.812 20.6277C286.332 19.713 287.499 18.2659 288.049 16.5409C286.604 17.4014 285.023 18.0079 283.375 18.3344C282.032 16.8982 280.119 16 278.001 16C273.936 16 270.639 19.3089 270.639 23.3877C270.639 23.9676 270.704 24.5314 270.83 25.0724C264.712 24.7634 259.287 21.8233 255.656 17.3526C255.002 18.4802 254.658 19.7617 254.659 21.0663C254.659 23.6298 255.959 25.8928 257.935 27.2167C256.766 27.1809 255.623 26.8639 254.601 26.2926C254.6 26.3236 254.6 26.3538 254.6 26.387C254.6 29.9652 257.137 32.9529 260.506 33.6298C259.873 33.8028 259.22 33.8902 258.565 33.8898C258.091 33.8898 257.63 33.8431 257.181 33.7566C258.118 36.6924 260.836 38.8288 264.058 38.8885C261.538 40.8706 258.365 42.0512 254.915 42.0512C254.328 42.0517 253.742 42.0175 253.159 41.9488C256.417 44.0448 260.285 45.2683 264.443 45.2683Z" fill="white"/>
</svg>
