<svg width="200" height="40" viewBox="0 0 200 40" fill="none" xmlns="http://www.w3.org/2000/svg">
<path d="M0 19.9029C0 8.91084 8.89501 0 19.8675 0C30.8401 0 39.7351 8.91084 39.7351 19.9029C39.7351 30.895 30.8401 39.8058 19.8675 39.8058C8.89501 39.8058 0 30.895 0 19.9029Z" fill="white"/>
<path d="M15.6538 19.541C15.6538 17.4093 17.3784 15.6808 19.5063 15.6808C21.6342 15.6808 23.3597 17.4093 23.3597 19.541C23.3597 21.6727 21.6342 23.4013 19.5063 23.4013C17.3784 23.4013 15.6538 21.6727 15.6538 19.541ZM13.5707 19.541C13.5707 22.8251 16.2281 25.4872 19.5063 25.4872C22.7846 25.4872 25.4419 22.8251 25.4419 19.541C25.4419 16.257 22.7846 13.5949 19.5063 13.5949C16.2281 13.5949 13.5707 16.257 13.5707 19.541ZM24.2897 13.3592C24.2897 14.1262 24.9106 14.7491 25.6772 14.7491C26.4428 14.7491 27.0647 14.1262 27.0647 13.3592C27.0647 12.5922 26.4438 11.9702 25.6772 11.9702C24.9106 11.9702 24.2897 12.5922 24.2897 13.3592ZM14.8359 28.9668C13.7089 28.9153 13.0964 28.7273 12.6893 28.5683C12.1496 28.3578 11.765 28.1072 11.3597 27.7021C10.9554 27.2971 10.7043 26.9118 10.4951 26.3711C10.3364 25.9633 10.1487 25.3497 10.0973 24.2207C10.0413 23 10.0301 22.6334 10.0301 19.541C10.0301 16.4487 10.0423 16.083 10.0973 14.8614C10.1487 13.7324 10.3373 13.1197 10.4951 12.711C10.7052 12.1703 10.9554 11.785 11.3597 11.379C11.764 10.974 12.1487 10.7224 12.6893 10.5129C13.0964 10.3538 13.7089 10.1658 14.8359 10.1144C16.0544 10.0583 16.4204 10.047 19.5063 10.047C22.5932 10.047 22.9582 10.0592 24.1777 10.1144C25.3046 10.1658 25.9162 10.3548 26.3243 10.5129C26.8639 10.7224 27.2486 10.974 27.6539 11.379C28.0582 11.784 28.3084 12.1703 28.5185 12.711C28.6772 13.1188 28.8649 13.7324 28.9162 14.8614C28.9723 16.083 28.9835 16.4487 28.9835 19.541C28.9835 22.6324 28.9723 22.9991 28.9162 24.2207C28.8649 25.3497 28.6763 25.9633 28.5185 26.3711C28.3084 26.9118 28.0582 27.2971 27.6539 27.7021C27.2496 28.1072 26.8639 28.3578 26.3243 28.5683C25.9172 28.7273 25.3046 28.9153 24.1777 28.9668C22.9592 29.0229 22.5932 29.0341 19.5063 29.0341C16.4204 29.0341 16.0544 29.0229 14.8359 28.9668ZM14.7407 8.03132C13.51 8.08744 12.6697 8.28293 11.9349 8.56915C11.1748 8.86473 10.5306 9.26133 9.88726 9.90486C9.24487 10.5484 8.84898 11.1938 8.55393 11.9561C8.26822 12.6923 8.07307 13.5341 8.01705 14.7669C7.96009 16.0016 7.94702 16.3963 7.94702 19.541C7.94702 22.6858 7.96009 23.0805 8.01705 24.3152C8.07307 25.548 8.26822 26.3898 8.55393 27.126C8.84898 27.8873 9.24394 28.5337 9.88726 29.1772C10.5297 29.8208 11.1739 30.2164 11.9349 30.5129C12.6706 30.7991 13.51 30.9946 14.7407 31.0508C15.9741 31.1069 16.3672 31.1209 19.5063 31.1209C22.6464 31.1209 23.0395 31.1078 24.272 31.0508C25.5026 30.9946 26.3429 30.7991 27.0778 30.5129C27.8378 30.2164 28.4821 29.8208 29.1254 29.1772C29.7678 28.5337 30.1627 27.8873 30.4587 27.126C30.7444 26.3898 30.9405 25.548 30.9956 24.3152C31.0516 23.0795 31.0647 22.6858 31.0647 19.541C31.0647 16.3963 31.0516 16.0016 30.9956 14.7669C30.9396 13.5341 30.7444 12.6923 30.4587 11.9561C30.1627 11.1947 29.7678 10.5493 29.1254 9.90486C28.483 9.26133 27.8378 8.86473 27.0787 8.56915C26.3429 8.28293 25.5026 8.0865 24.2729 8.03132C23.0404 7.9752 22.6464 7.96116 19.5073 7.96116C16.3672 7.96116 15.9741 7.97426 14.7407 8.03132Z" fill="#1A1A1A"/>
<path d="M52.9801 19.9029C52.9801 8.91084 61.8751 0 72.8477 0C83.8202 0 92.7152 8.91084 92.7152 19.9029C92.7152 30.895 83.8202 39.8058 72.8477 39.8058C61.8751 39.8058 52.9801 30.895 52.9801 19.9029Z" fill="white"/>
<path d="M84.0458 19.541C84.0458 13.1457 78.8705 7.96116 72.4865 7.96116C66.1024 7.96116 60.9272 13.1457 60.9272 19.541C60.9272 25.1577 64.9189 29.8405 70.2155 30.8975V22.081H68.3303V18.9326H70.2155V17.0427C70.2155 14.4743 71.2798 12.9473 74.304 12.9473H76.8217V16.0958H75.2479C74.0706 16.0958 73.9928 16.5356 73.9928 17.3567L73.9885 18.9324H76.8393L76.5057 22.0804H73.9885V31.024C79.6629 30.2864 84.0458 25.4265 84.0458 19.541Z" fill="#1A1A1A"/>
<path d="M105.96 19.9029C105.96 8.91084 114.855 0 125.828 0C136.8 0 145.695 8.91084 145.695 19.9029C145.695 30.895 136.8 39.8058 125.828 39.8058C114.855 39.8058 105.96 30.895 105.96 19.9029Z" fill="white"/>
<path d="M126.568 28.7156L121.594 28.6245C119.983 28.5928 118.368 28.6561 116.789 28.3272C114.387 27.8358 114.217 25.4263 114.039 23.4052C113.793 20.5638 113.888 17.6709 114.351 14.8532C114.613 13.2721 115.641 12.3287 117.232 12.2261C122.603 11.8535 128.009 11.8977 133.367 12.0715C133.933 12.0874 134.503 12.1745 135.061 12.2736C137.816 12.7571 137.883 15.4876 138.062 17.7862C138.24 20.1084 138.164 22.4426 137.824 24.7491C137.551 26.6588 137.029 28.2602 134.824 28.4148C132.061 28.617 129.362 28.7797 126.592 28.7279C126.592 28.7156 126.576 28.7156 126.568 28.7156ZM123.644 23.8808C125.725 22.6839 127.767 21.507 129.837 20.3181C127.752 19.1212 125.714 17.9443 123.644 16.7554V23.8808Z" fill="#1A1A1A"/>
<path d="M160.265 19.9029C160.265 8.91084 169.16 0 180.132 0C191.105 0 200 8.91084 200 19.9029C200 30.895 191.105 39.8058 180.132 39.8058C169.16 39.8058 160.265 30.895 160.265 19.9029Z" fill="white"/>
<path d="M175.71 30.0324C184.707 30.0324 189.627 22.5627 189.627 16.0852C189.627 15.873 189.623 15.6619 189.613 15.4516C190.57 14.7574 191.397 13.8978 192.053 12.9132C191.177 13.3037 190.233 13.5665 189.244 13.685C190.254 13.0782 191.029 12.1181 191.395 10.9738C190.435 11.5446 189.384 11.947 188.289 12.1636C187.396 11.2108 186.126 10.6149 184.719 10.6149C182.017 10.6149 179.827 12.8101 179.827 15.5161C179.827 15.9008 179.87 16.2749 179.954 16.6338C175.888 16.4288 172.284 14.4782 169.871 11.5123C169.436 12.2603 169.208 13.1105 169.209 13.9761C169.209 15.6767 170.072 17.178 171.385 18.0564C170.609 18.0326 169.849 17.8224 169.17 17.4433C169.169 17.4639 169.169 17.4839 169.169 17.5059C169.169 19.8798 170.855 21.8619 173.094 22.3111C172.673 22.4258 172.239 22.4838 171.804 22.4835C171.489 22.4835 171.183 22.4525 170.884 22.3952C171.507 24.3428 173.313 25.7602 175.454 25.7998C173.78 27.1148 171.671 27.898 169.379 27.898C168.989 27.8984 168.599 27.8757 168.212 27.8301C170.377 29.2207 172.947 30.0324 175.71 30.0324Z" fill="#1A1A1A"/>
</svg>
