<svg width="984" height="34" viewBox="0 0 984 34" fill="none" xmlns="http://www.w3.org/2000/svg">
<path d="M12.6035 26.928C10.2515 26.928 8.13947 26.46 6.26747 25.524C4.41947 24.564 2.95547 23.148 1.87547 21.276C0.795469 19.38 0.255469 17.064 0.255469 14.328C0.255469 12.12 0.759469 10.056 1.76747 8.136C2.77547 6.216 4.16747 4.68 5.94347 3.528C7.71947 2.376 9.71147 1.8 11.9195 1.8C14.0075 1.8 15.8675 2.196 17.4995 2.988C19.1315 3.756 20.3915 4.812 21.2795 6.156C22.1915 7.5 22.6475 9 22.6475 10.656C22.6475 11.712 22.3355 12.624 21.7115 13.392C21.1115 14.16 20.2475 14.544 19.1195 14.544C18.2795 14.544 17.6315 14.4 17.1755 14.112C16.7195 13.824 16.2395 13.38 15.7355 12.78C15.2315 12.18 14.7395 11.736 14.2595 11.448C13.8035 11.136 13.1315 10.98 12.2435 10.98C11.1155 10.98 10.1435 11.412 9.32747 12.276C8.53547 13.116 8.13947 14.148 8.13947 15.372C8.13947 16.692 8.47547 17.808 9.14747 18.72C9.84347 19.608 10.7795 20.052 11.9555 20.052C12.8675 20.052 13.5875 19.92 14.1155 19.656C14.6675 19.392 15.2435 19.008 15.8435 18.504C16.3475 18.072 16.8035 17.748 17.2115 17.532C17.6435 17.316 18.1715 17.208 18.7955 17.208C19.7555 17.208 20.5115 17.508 21.0635 18.108C21.6155 18.684 21.8915 19.44 21.8915 20.376C21.8915 21.48 21.4835 22.536 20.6675 23.544C19.8755 24.552 18.7715 25.368 17.3555 25.992C15.9395 26.616 14.3555 26.928 12.6035 26.928ZM28.295 27C26.759 27 25.727 26.1 25.199 24.3C24.695 22.5 24.443 20.016 24.443 16.848C24.443 15.408 24.503 14.208 24.623 13.248C24.767 12.264 25.091 11.436 25.595 10.764C26.123 10.068 26.927 9.72 28.007 9.72C28.679 9.72 29.267 9.876 29.771 10.188C30.299 10.5 30.635 10.944 30.779 11.52C31.307 11.04 31.991 10.68 32.831 10.44C33.671 10.2 34.571 10.08 35.531 10.08C36.299 10.08 37.079 10.272 37.871 10.656C38.687 11.04 39.359 11.568 39.887 12.24C40.439 12.888 40.715 13.596 40.715 14.364C40.715 15.132 40.439 15.816 39.887 16.416C39.359 16.992 38.651 17.28 37.763 17.28C37.475 17.28 37.199 17.244 36.935 17.172C36.695 17.1 36.479 17.028 36.287 16.956C35.807 16.764 35.423 16.668 35.135 16.668C34.199 16.668 33.371 17.04 32.651 17.784C31.955 18.504 31.607 19.44 31.607 20.592C31.607 21.864 31.559 22.92 31.463 23.76C31.367 24.6 31.079 25.356 30.599 26.028C30.119 26.676 29.351 27 28.295 27ZM47.9034 27C46.0314 27 44.4954 26.58 43.2954 25.74C42.0954 24.876 41.4954 23.64 41.4954 22.032C41.4954 20.64 42.1074 19.536 43.3314 18.72C44.5554 17.904 46.0794 17.496 47.9034 17.496C48.5754 17.496 49.1994 17.556 49.7754 17.676C50.3754 17.772 50.7834 17.892 50.9994 18.036C50.9994 17.436 50.7474 16.944 50.2434 16.56C49.7394 16.152 48.9714 15.948 47.9394 15.948C47.4834 15.948 47.1114 15.984 46.8234 16.056C46.5354 16.128 46.2234 16.236 45.8874 16.38C45.5514 16.524 45.2394 16.632 44.9514 16.704C44.6874 16.776 44.3274 16.812 43.8714 16.812C43.1034 16.812 42.5034 16.62 42.0714 16.236C41.6394 15.828 41.4234 15.216 41.4234 14.4C41.4234 13.464 41.7594 12.672 42.4314 12.024C43.1274 11.376 43.9914 10.896 45.0234 10.584C46.0554 10.248 47.0874 10.08 48.1194 10.08C50.1594 10.08 51.8634 10.464 53.2314 11.232C54.6234 11.976 55.6434 12.972 56.2914 14.22C56.9634 15.468 57.2994 16.848 57.2994 18.36C57.2994 19.176 57.2274 19.932 57.0834 20.628C56.9634 21.324 56.7954 21.864 56.5794 22.248C56.9154 22.536 57.1674 22.872 57.3354 23.256C57.5274 23.64 57.6234 24.036 57.6234 24.444C57.6234 25.14 57.3834 25.74 56.9034 26.244C56.4474 26.748 55.8354 27 55.0674 27C54.4914 27 54.0234 26.916 53.6634 26.748C53.3034 26.58 52.9194 26.316 52.5114 25.956C51.9114 26.316 51.2514 26.58 50.5314 26.748C49.8354 26.916 48.9594 27 47.9034 27ZM48.6234 23.364C49.1274 23.364 49.5234 23.256 49.8114 23.04C50.1234 22.824 50.2794 22.56 50.2794 22.248C50.2794 21.936 50.1234 21.672 49.8114 21.456C49.5234 21.24 49.1274 21.132 48.6234 21.132C48.1194 21.132 47.7114 21.24 47.3994 21.456C47.1114 21.672 46.9674 21.936 46.9674 22.248C46.9674 22.56 47.1114 22.824 47.3994 23.04C47.7114 23.256 48.1194 23.364 48.6234 23.364ZM69.6736 12.672C72.0256 12.72 73.7176 12.972 74.7496 13.428C75.8056 13.884 76.3336 14.76 76.3336 16.056C76.3336 17.328 75.7936 18.192 74.7136 18.648C73.6576 19.08 72.0016 19.32 69.7456 19.368L69.7816 22.212C69.8056 22.668 69.8176 23.304 69.8176 24.12C69.8176 25.152 69.5296 25.884 68.9536 26.316C68.3776 26.724 67.7056 26.928 66.9376 26.928C65.6176 26.928 64.6576 26.268 64.0576 24.948C63.4576 23.628 63.0856 21.744 62.9416 19.296C61.3816 19.176 60.2176 18.876 59.4496 18.396C58.7056 17.916 58.3336 17.136 58.3336 16.056C58.3336 14.976 58.7056 14.196 59.4496 13.716C60.2176 13.212 61.3816 12.888 62.9416 12.744C63.0856 10.416 63.4336 8.46 63.9856 6.876C64.5376 5.292 65.4376 4.056 66.6856 3.168C67.9336 2.256 69.6136 1.8 71.7256 1.8C73.0456 1.8 74.1376 2.112 75.0016 2.736C75.8896 3.336 76.3336 4.212 76.3336 5.364C76.3336 6.564 75.9616 7.476 75.2176 8.1C74.4976 8.7 73.5016 9.12 72.2296 9.36C71.3896 9.528 70.7776 9.9 70.3936 10.476C70.0096 11.028 69.7696 11.76 69.6736 12.672ZM95.5188 11.412C95.5188 12.66 94.9308 13.512 93.7548 13.968C92.5788 14.4 90.9708 14.628 88.9308 14.652C88.9068 15.252 88.8948 16.224 88.8948 17.568C88.8948 18.936 88.9908 19.908 89.1828 20.484C89.3028 20.892 89.4828 21.156 89.7228 21.276C89.9868 21.396 90.3708 21.48 90.8748 21.528C91.0428 21.552 91.2228 21.588 91.4148 21.636C91.6308 21.66 91.8708 21.696 92.1348 21.744C92.6868 21.864 93.1188 22.164 93.4308 22.644C93.7428 23.1 93.8988 23.688 93.8988 24.408C93.8988 25.224 93.4788 25.86 92.6388 26.316C91.7988 26.772 90.6468 27 89.1828 27C87.8388 27 86.5548 26.616 85.3308 25.848C84.1068 25.056 83.2668 24 82.8108 22.68C82.3308 21.264 82.0908 18.588 82.0908 14.652C80.4108 14.604 79.0548 14.388 78.0228 14.004C77.0148 13.596 76.5108 12.876 76.5108 11.844C76.5108 10.548 76.9908 9.684 77.9508 9.252C78.9108 8.796 80.2908 8.556 82.0908 8.532C82.1628 6.612 82.4628 5.016 82.9908 3.744C83.5188 2.448 84.4668 1.8 85.8348 1.8C87.2268 1.8 88.1268 2.4 88.5348 3.6C88.9668 4.8 89.1588 6.444 89.1108 8.532C91.2948 8.508 92.9028 8.676 93.9348 9.036C94.9908 9.396 95.5188 10.188 95.5188 11.412ZM100.092 9.54C98.9165 9.54 97.9205 9.12 97.1045 8.28C96.2885 7.416 95.8805 6.372 95.8805 5.148C95.8805 3.948 96.2885 2.928 97.1045 2.088C97.9205 1.224 98.9165 0.791998 100.092 0.791998C101.244 0.791998 102.228 1.224 103.044 2.088C103.884 2.928 104.304 3.948 104.304 5.148C104.304 6.372 103.884 7.416 103.044 8.28C102.228 9.12 101.244 9.54 100.092 9.54ZM100.092 27C99.1085 27 98.3765 26.724 97.8965 26.172C97.4405 25.596 97.1285 24.744 96.9605 23.616C96.8165 22.464 96.7445 20.832 96.7445 18.72C96.7445 16.944 96.8285 15.54 96.9965 14.508C97.1885 13.476 97.5245 12.708 98.0045 12.204C98.4845 11.7 99.1805 11.448 100.092 11.448C101.076 11.448 101.796 11.736 102.252 12.312C102.732 12.864 103.044 13.716 103.188 14.868C103.356 15.996 103.44 17.616 103.44 19.728C103.44 21.504 103.344 22.908 103.152 23.94C102.984 24.972 102.66 25.74 102.18 26.244C101.7 26.748 101.004 27 100.092 27ZM119.979 27C119.115 27 118.467 26.76 118.035 26.28C117.627 25.8 117.375 25.212 117.279 24.516C117.183 23.82 117.135 22.92 117.135 21.816C117.135 20.4 116.943 19.308 116.559 18.54C116.175 17.772 115.551 17.388 114.687 17.388C113.895 17.388 113.295 17.772 112.887 18.54C112.503 19.284 112.311 20.316 112.311 21.636C112.311 22.908 112.275 23.868 112.203 24.516C112.131 25.164 111.891 25.74 111.483 26.244C111.075 26.724 110.403 26.964 109.467 26.964C108.099 26.964 107.139 26.088 106.587 24.336C106.035 22.56 105.759 20.484 105.759 18.108C105.759 12.348 106.971 9.468 109.395 9.468C110.067 9.468 110.619 9.636 111.051 9.972C111.483 10.284 111.783 10.74 111.951 11.34C112.263 11.004 112.743 10.704 113.391 10.44C114.063 10.176 114.771 10.044 115.515 10.044C118.155 10.044 120.123 11.004 121.419 12.924C122.739 14.844 123.399 17.448 123.399 20.736C123.399 22.68 123.147 24.216 122.643 25.344C122.139 26.448 121.251 27 119.979 27ZM132.346 33.156C130.954 33.156 129.814 32.892 128.926 32.364C128.038 31.86 127.594 31.164 127.594 30.276C127.594 29.484 127.894 28.836 128.494 28.332C129.118 27.852 129.898 27.612 130.834 27.612C131.002 27.612 131.278 27.636 131.662 27.684C132.142 27.756 132.586 27.792 132.994 27.792C134.026 27.792 134.914 27.612 135.658 27.252C136.426 26.916 136.894 26.46 137.062 25.884C136.678 26.1 136.138 26.28 135.442 26.424C134.746 26.568 134.002 26.64 133.21 26.64C131.17 26.64 129.49 26.244 128.17 25.452C126.874 24.66 125.938 23.688 125.362 22.536C124.786 21.36 124.498 20.208 124.498 19.08C124.498 17.208 124.906 15.588 125.722 14.22C126.562 12.852 127.642 11.808 128.962 11.088C130.282 10.368 131.662 10.008 133.102 10.008C133.582 10.008 134.134 10.044 134.758 10.116C135.406 10.188 135.946 10.272 136.378 10.368C136.57 9.72 136.894 9.216 137.35 8.856C137.83 8.496 138.538 8.316 139.474 8.316C141.034 8.316 142.162 9.288 142.858 11.232C143.578 13.176 143.938 15.576 143.938 18.432C143.938 19.776 143.866 21.048 143.722 22.248C143.362 25.632 142.174 28.296 140.158 30.24C138.142 32.184 135.538 33.156 132.346 33.156ZM133.678 21.24C134.422 21.24 135.07 20.976 135.622 20.448C136.174 19.896 136.45 19.248 136.45 18.504C136.45 17.76 136.174 17.112 135.622 16.56C135.07 16.008 134.422 15.732 133.678 15.732C132.934 15.732 132.286 16.008 131.734 16.56C131.206 17.112 130.942 17.76 130.942 18.504C130.942 19.248 131.206 19.896 131.734 20.448C132.286 20.976 132.934 21.24 133.678 21.24ZM179.17 6.084C179.17 7.308 178.774 8.232 177.982 8.856C177.19 9.48 176.05 9.912 174.562 10.152C174.634 11.4 174.67 12.936 174.67 14.76C174.67 18.84 173.866 21.9 172.258 23.94C170.65 25.98 168.178 27 164.842 27C163.21 27 161.758 26.676 160.486 26.028C159.214 25.356 158.23 24.468 157.534 23.364C156.838 22.26 156.49 21.084 156.49 19.836C156.49 18.66 156.814 17.736 157.462 17.064C158.134 16.392 158.914 16.056 159.802 16.056C160.642 16.056 161.254 16.224 161.638 16.56C162.046 16.872 162.406 17.328 162.718 17.928C162.982 18.384 163.222 18.72 163.438 18.936C163.678 19.152 164.014 19.26 164.446 19.26C165.238 19.26 165.742 18.864 165.958 18.072C166.198 17.28 166.318 15.936 166.318 14.04V12.528V10.332C164.182 10.236 162.514 9.876 161.314 9.252C160.138 8.628 159.55 7.572 159.55 6.084C159.55 4.812 159.982 3.864 160.846 3.24C161.734 2.616 162.85 2.22 164.194 2.052C165.562 1.884 167.29 1.8 169.378 1.8C171.466 1.8 173.182 1.884 174.526 2.052C175.87 2.22 176.974 2.616 177.838 3.24C178.726 3.864 179.17 4.812 179.17 6.084ZM185.634 27.036C183.906 27.06 182.358 26.7 180.99 25.956C179.646 25.212 178.59 24.192 177.822 22.896C177.078 21.576 176.682 20.112 176.634 18.504C176.61 16.896 176.982 15.456 177.75 14.184C178.518 12.912 179.586 11.904 180.954 11.16C182.346 10.416 183.906 10.044 185.634 10.044C187.314 10.044 188.826 10.404 190.17 11.124C191.538 11.844 192.618 12.852 193.41 14.148C194.202 15.444 194.622 16.896 194.67 18.504C194.694 20.064 194.322 21.492 193.554 22.788C192.786 24.06 191.706 25.08 190.314 25.848C188.946 26.616 187.386 27.012 185.634 27.036ZM185.742 21.78C186.39 21.78 186.954 21.528 187.434 21.024C187.914 20.52 188.154 19.932 188.154 19.26C188.154 18.588 187.914 18.012 187.434 17.532C186.954 17.028 186.39 16.776 185.742 16.776C185.094 16.776 184.53 17.028 184.05 17.532C183.57 18.012 183.33 18.588 183.33 19.26C183.33 19.932 183.57 20.52 184.05 21.024C184.53 21.528 185.094 21.78 185.742 21.78ZM204.471 27C202.719 27 201.183 26.568 199.863 25.704C198.543 24.816 197.523 23.592 196.803 22.032C196.107 20.448 195.759 18.624 195.759 16.56C195.759 14.544 196.083 12.96 196.731 11.808C197.379 10.656 198.279 10.08 199.431 10.08C201.471 10.08 202.491 11.124 202.491 13.212C202.491 13.644 202.479 14.028 202.455 14.364C202.431 14.676 202.407 14.952 202.383 15.192C202.287 16.152 202.239 16.92 202.239 17.496C202.239 18.552 202.455 19.356 202.887 19.908C203.319 20.46 203.847 20.736 204.471 20.736C205.119 20.736 205.647 20.472 206.055 19.944C206.487 19.392 206.703 18.576 206.703 17.496C206.703 16.728 206.667 16.02 206.595 15.372C206.571 15.156 206.547 14.844 206.523 14.436C206.499 14.004 206.487 13.608 206.487 13.248C206.487 11.136 207.507 10.08 209.547 10.08C210.699 10.08 211.587 10.656 212.211 11.808C212.859 12.936 213.183 14.52 213.183 16.56C213.183 19.752 212.439 22.296 210.951 24.192C209.463 26.064 207.303 27 204.471 27ZM218.244 27C216.708 27 215.676 26.1 215.148 24.3C214.644 22.5 214.392 20.016 214.392 16.848C214.392 15.408 214.452 14.208 214.572 13.248C214.716 12.264 215.04 11.436 215.544 10.764C216.072 10.068 216.876 9.72 217.956 9.72C218.628 9.72 219.216 9.876 219.72 10.188C220.248 10.5 220.584 10.944 220.728 11.52C221.256 11.04 221.94 10.68 222.78 10.44C223.62 10.2 224.52 10.08 225.48 10.08C226.248 10.08 227.028 10.272 227.82 10.656C228.636 11.04 229.308 11.568 229.836 12.24C230.388 12.888 230.664 13.596 230.664 14.364C230.664 15.132 230.388 15.816 229.836 16.416C229.308 16.992 228.6 17.28 227.712 17.28C227.424 17.28 227.148 17.244 226.884 17.172C226.644 17.1 226.428 17.028 226.236 16.956C225.756 16.764 225.372 16.668 225.084 16.668C224.148 16.668 223.32 17.04 222.6 17.784C221.904 18.504 221.556 19.44 221.556 20.592C221.556 21.864 221.508 22.92 221.412 23.76C221.316 24.6 221.028 25.356 220.548 26.028C220.068 26.676 219.3 27 218.244 27ZM245.979 27C245.115 27 244.467 26.76 244.035 26.28C243.627 25.8 243.375 25.212 243.279 24.516C243.183 23.82 243.135 22.92 243.135 21.816C243.135 20.4 242.943 19.308 242.559 18.54C242.175 17.772 241.551 17.388 240.687 17.388C239.895 17.388 239.295 17.772 238.887 18.54C238.503 19.284 238.311 20.316 238.311 21.636C238.311 22.908 238.275 23.868 238.203 24.516C238.131 25.164 237.891 25.74 237.483 26.244C237.075 26.724 236.403 26.964 235.467 26.964C234.099 26.964 233.139 26.088 232.587 24.336C232.035 22.56 231.759 20.484 231.759 18.108C231.759 12.348 232.971 9.468 235.395 9.468C236.067 9.468 236.619 9.636 237.051 9.972C237.483 10.284 237.783 10.74 237.951 11.34C238.263 11.004 238.743 10.704 239.391 10.44C240.063 10.176 240.771 10.044 241.515 10.044C244.155 10.044 246.123 11.004 247.419 12.924C248.739 14.844 249.399 17.448 249.399 20.736C249.399 22.68 249.147 24.216 248.643 25.344C248.139 26.448 247.251 27 245.979 27ZM259.534 27C257.758 27 256.186 26.652 254.818 25.956C253.45 25.26 252.382 24.288 251.614 23.04C250.87 21.768 250.498 20.34 250.498 18.756C250.498 17.196 250.87 15.756 251.614 14.436C252.382 13.116 253.438 12.06 254.782 11.268C256.126 10.476 257.65 10.08 259.354 10.08C260.89 10.08 262.246 10.392 263.422 11.016C264.598 11.64 265.498 12.468 266.122 13.5C266.746 14.508 267.058 15.564 267.058 16.668C267.058 18.468 266.374 19.788 265.006 20.628C263.662 21.444 262.054 21.852 260.182 21.852C258.934 21.852 257.878 21.696 257.014 21.384C257.734 22.56 258.922 23.148 260.578 23.148C261.25 23.148 261.97 23.064 262.738 22.896C263.026 22.824 263.302 22.788 263.566 22.788C264.094 22.788 264.514 22.92 264.826 23.184C265.162 23.448 265.33 23.808 265.33 24.264C265.33 25.008 264.874 25.656 263.962 26.208C263.05 26.736 261.574 27 259.534 27ZM257.122 16.992C257.338 17.328 257.626 17.58 257.986 17.748C258.37 17.892 258.79 17.964 259.246 17.964C259.774 17.964 260.23 17.844 260.614 17.604C261.022 17.364 261.226 17.052 261.226 16.668C261.226 16.236 261.046 15.864 260.686 15.552C260.35 15.24 259.858 15.084 259.21 15.084C258.562 15.084 258.046 15.288 257.662 15.696C257.302 16.08 257.122 16.512 257.122 16.992ZM273.771 32.328C272.475 32.328 271.395 32.076 270.531 31.572C269.667 31.068 269.235 30.324 269.235 29.34C269.235 28.548 269.607 27.924 270.351 27.468C271.095 27.012 271.971 26.808 272.979 26.856C274.035 26.904 274.851 26.856 275.427 26.712C276.027 26.568 276.483 26.304 276.795 25.92C274.587 25.92 272.823 25.608 271.503 24.984C270.183 24.336 269.223 23.34 268.623 21.996C268.047 20.628 267.759 18.828 267.759 16.596C267.759 14.676 268.047 13.128 268.623 11.952C269.223 10.752 270.159 10.152 271.431 10.152C272.559 10.152 273.387 10.476 273.915 11.124C274.467 11.748 274.743 12.564 274.743 13.572L274.707 15.156C274.683 15.468 274.671 15.924 274.671 16.524C274.671 17.676 274.815 18.552 275.103 19.152C275.391 19.728 275.967 20.016 276.831 20.016C277.695 20.016 278.271 19.728 278.559 19.152C278.847 18.552 278.991 17.688 278.991 16.56C278.991 15.96 278.979 15.504 278.955 15.192L278.919 13.644C278.919 12.564 279.183 11.712 279.711 11.088C280.263 10.464 281.103 10.152 282.231 10.152C283.503 10.152 284.439 10.752 285.039 11.952C285.639 13.152 285.939 14.7 285.939 16.596C285.939 19.428 285.531 22.032 284.715 24.408C283.923 26.76 282.615 28.668 280.791 30.132C278.991 31.596 276.651 32.328 273.771 32.328ZM293.937 27C291.825 27 290.145 26.652 288.897 25.956C287.649 25.26 287.025 24.36 287.025 23.256C287.025 22.536 287.265 21.984 287.745 21.6C288.249 21.192 288.885 20.988 289.653 20.988C290.085 20.988 290.433 21.048 290.697 21.168C290.961 21.288 291.225 21.456 291.489 21.672C291.681 21.84 291.837 21.96 291.957 22.032C292.101 22.104 292.269 22.14 292.461 22.14C292.965 22.14 293.217 21.96 293.217 21.6C293.217 21.264 293.085 21.012 292.821 20.844C292.557 20.652 292.101 20.424 291.453 20.16C290.853 19.92 290.457 19.752 290.265 19.656C289.161 19.128 288.345 18.504 287.817 17.784C287.289 17.064 287.025 16.296 287.025 15.48C287.025 14.568 287.349 13.704 287.997 12.888C288.669 12.048 289.605 11.376 290.805 10.872C292.029 10.344 293.433 10.08 295.017 10.08C296.385 10.08 297.621 10.272 298.725 10.656C299.853 11.04 300.741 11.568 301.389 12.24C302.037 12.888 302.361 13.608 302.361 14.4C302.361 15.144 302.121 15.708 301.641 16.092C301.185 16.476 300.561 16.668 299.769 16.668C299.457 16.668 299.205 16.644 299.013 16.596C298.845 16.524 298.617 16.416 298.329 16.272C298.161 16.176 297.981 16.092 297.789 16.02C297.621 15.948 297.429 15.912 297.213 15.912C297.021 15.912 296.853 15.984 296.709 16.128C296.565 16.248 296.493 16.404 296.493 16.596C296.493 16.956 296.757 17.22 297.285 17.388C298.677 17.844 299.793 18.42 300.633 19.116C301.497 19.812 301.929 20.772 301.929 21.996C301.929 23.556 301.197 24.78 299.733 25.668C298.293 26.556 296.361 27 293.937 27ZM311.778 24.732C311.778 25.932 311.502 27.012 310.95 27.972C310.422 28.956 309.774 29.724 309.006 30.276C308.262 30.828 307.59 31.104 306.99 31.104C306.486 31.104 306.078 30.96 305.766 30.672C305.478 30.384 305.334 30.024 305.334 29.592C305.334 29.28 305.394 29.016 305.514 28.8C305.658 28.584 305.886 28.308 306.198 27.972C306.39 27.78 306.57 27.564 306.738 27.324C306.906 27.084 307.026 26.844 307.098 26.604C306.306 26.388 305.706 26.016 305.298 25.488C304.89 24.936 304.686 24.312 304.686 23.616C304.686 22.728 304.998 21.936 305.622 21.24C306.27 20.544 307.074 20.196 308.034 20.196C309.162 20.196 310.062 20.58 310.734 21.348C311.43 22.092 311.778 23.22 311.778 24.732ZM337.199 27.036C335.015 27.06 332.987 26.52 331.115 25.416C329.267 24.312 327.779 22.8 326.651 20.88C325.547 18.936 324.971 16.788 324.923 14.436C324.899 12.18 325.427 10.092 326.507 8.172C327.587 6.252 329.075 4.728 330.971 3.6C332.867 2.448 334.943 1.872 337.199 1.872C339.407 1.848 341.447 2.4 343.319 3.528C345.215 4.656 346.715 6.204 347.819 8.172C348.923 10.14 349.475 12.312 349.475 14.688C349.475 16.92 348.923 18.972 347.819 20.844C346.715 22.716 345.215 24.204 343.319 25.308C341.447 26.412 339.407 26.988 337.199 27.036ZM337.307 20.016C338.411 20.016 339.347 19.62 340.115 18.828C340.907 18.036 341.291 17.004 341.267 15.732C341.267 14.436 340.883 13.392 340.115 12.6C339.347 11.808 338.411 11.412 337.307 11.412C336.203 11.412 335.267 11.808 334.499 12.6C333.731 13.392 333.347 14.436 333.347 15.732C333.347 17.004 333.731 18.036 334.499 18.828C335.267 19.62 336.203 20.016 337.307 20.016ZM364.808 27C363.944 27 363.296 26.76 362.864 26.28C362.456 25.8 362.204 25.212 362.108 24.516C362.012 23.82 361.964 22.92 361.964 21.816C361.964 20.4 361.772 19.308 361.388 18.54C361.004 17.772 360.38 17.388 359.516 17.388C358.724 17.388 358.124 17.772 357.716 18.54C357.332 19.284 357.14 20.316 357.14 21.636C357.14 22.908 357.104 23.868 357.032 24.516C356.96 25.164 356.72 25.74 356.312 26.244C355.904 26.724 355.232 26.964 354.296 26.964C352.928 26.964 351.968 26.088 351.416 24.336C350.864 22.56 350.588 20.484 350.588 18.108C350.588 12.348 351.8 9.468 354.224 9.468C354.896 9.468 355.448 9.636 355.88 9.972C356.312 10.284 356.612 10.74 356.78 11.34C357.092 11.004 357.572 10.704 358.22 10.44C358.892 10.176 359.6 10.044 360.344 10.044C362.984 10.044 364.952 11.004 366.248 12.924C367.568 14.844 368.228 17.448 368.228 20.736C368.228 22.68 367.976 24.216 367.472 25.344C366.968 26.448 366.08 27 364.808 27ZM378.362 27C376.586 27 375.014 26.652 373.646 25.956C372.278 25.26 371.21 24.288 370.442 23.04C369.698 21.768 369.326 20.34 369.326 18.756C369.326 17.196 369.698 15.756 370.442 14.436C371.21 13.116 372.266 12.06 373.61 11.268C374.954 10.476 376.478 10.08 378.182 10.08C379.718 10.08 381.074 10.392 382.25 11.016C383.426 11.64 384.326 12.468 384.95 13.5C385.574 14.508 385.886 15.564 385.886 16.668C385.886 18.468 385.202 19.788 383.834 20.628C382.49 21.444 380.882 21.852 379.01 21.852C377.762 21.852 376.706 21.696 375.842 21.384C376.562 22.56 377.75 23.148 379.406 23.148C380.078 23.148 380.798 23.064 381.566 22.896C381.854 22.824 382.13 22.788 382.394 22.788C382.922 22.788 383.342 22.92 383.654 23.184C383.99 23.448 384.158 23.808 384.158 24.264C384.158 25.008 383.702 25.656 382.79 26.208C381.878 26.736 380.402 27 378.362 27ZM375.95 16.992C376.166 17.328 376.454 17.58 376.814 17.748C377.198 17.892 377.618 17.964 378.074 17.964C378.602 17.964 379.058 17.844 379.442 17.604C379.85 17.364 380.054 17.052 380.054 16.668C380.054 16.236 379.874 15.864 379.514 15.552C379.178 15.24 378.686 15.084 378.038 15.084C377.39 15.084 376.874 15.288 376.49 15.696C376.13 16.08 375.95 16.512 375.95 16.992ZM423.922 7.164C423.922 8.748 423.262 9.9 421.942 10.62C420.646 11.316 418.522 11.736 415.57 11.88C415.666 13.032 415.714 14.52 415.714 16.344C415.714 18.888 415.57 20.928 415.282 22.464C415.018 23.976 414.55 25.104 413.878 25.848C413.206 26.568 412.27 26.928 411.07 26.928C409.894 26.928 408.994 26.544 408.37 25.776C407.746 25.008 407.314 23.868 407.074 22.356C406.834 20.844 406.714 18.84 406.714 16.344C406.714 14.664 406.75 13.176 406.822 11.88C404.83 11.784 403.222 11.58 401.998 11.268C400.798 10.932 399.91 10.44 399.334 9.792C398.758 9.144 398.47 8.268 398.47 7.164C398.47 5.82 398.926 4.764 399.838 3.996C400.75 3.228 402.118 2.688 403.942 2.376C405.766 2.064 408.154 1.908 411.106 1.908C414.082 1.908 416.494 2.064 418.342 2.376C420.19 2.688 421.582 3.228 422.518 3.996C423.454 4.764 423.922 5.82 423.922 7.164ZM426.334 27C424.798 27 423.766 26.1 423.238 24.3C422.734 22.5 422.482 20.016 422.482 16.848C422.482 15.408 422.542 14.208 422.662 13.248C422.806 12.264 423.13 11.436 423.634 10.764C424.162 10.068 424.966 9.72 426.046 9.72C426.718 9.72 427.306 9.876 427.81 10.188C428.338 10.5 428.674 10.944 428.818 11.52C429.346 11.04 430.03 10.68 430.87 10.44C431.71 10.2 432.61 10.08 433.57 10.08C434.338 10.08 435.118 10.272 435.91 10.656C436.726 11.04 437.398 11.568 437.926 12.24C438.478 12.888 438.754 13.596 438.754 14.364C438.754 15.132 438.478 15.816 437.926 16.416C437.398 16.992 436.69 17.28 435.802 17.28C435.514 17.28 435.238 17.244 434.974 17.172C434.734 17.1 434.518 17.028 434.326 16.956C433.846 16.764 433.462 16.668 433.174 16.668C432.238 16.668 431.41 17.04 430.69 17.784C429.994 18.504 429.646 19.44 429.646 20.592C429.646 21.864 429.598 22.92 429.502 23.76C429.406 24.6 429.118 25.356 428.638 26.028C428.158 26.676 427.39 27 426.334 27ZM443.675 9.54C442.499 9.54 441.503 9.12 440.687 8.28C439.871 7.416 439.463 6.372 439.463 5.148C439.463 3.948 439.871 2.928 440.687 2.088C441.503 1.224 442.499 0.791998 443.675 0.791998C444.827 0.791998 445.811 1.224 446.627 2.088C447.467 2.928 447.887 3.948 447.887 5.148C447.887 6.372 447.467 7.416 446.627 8.28C445.811 9.12 444.827 9.54 443.675 9.54ZM443.675 27C442.691 27 441.959 26.724 441.479 26.172C441.023 25.596 440.711 24.744 440.543 23.616C440.399 22.464 440.327 20.832 440.327 18.72C440.327 16.944 440.411 15.54 440.579 14.508C440.771 13.476 441.107 12.708 441.587 12.204C442.067 11.7 442.763 11.448 443.675 11.448C444.659 11.448 445.379 11.736 445.835 12.312C446.315 12.864 446.627 13.716 446.771 14.868C446.939 15.996 447.023 17.616 447.023 19.728C447.023 21.504 446.927 22.908 446.735 23.94C446.567 24.972 446.243 25.74 445.763 26.244C445.283 26.748 444.587 27 443.675 27ZM452.662 32.148C451.486 32.148 450.634 31.548 450.106 30.348C449.578 29.172 449.254 27.828 449.134 26.316C449.038 24.804 448.99 22.812 448.99 20.34C448.99 18.444 449.062 16.776 449.206 15.336C449.374 13.896 449.746 12.648 450.322 11.592C450.898 10.536 451.774 10.008 452.95 10.008C454.174 10.008 455.062 10.488 455.614 11.448C456.166 11.04 456.85 10.716 457.666 10.476C458.506 10.212 459.382 10.08 460.294 10.08C461.83 10.08 463.246 10.464 464.542 11.232C465.838 12 466.87 13.032 467.638 14.328C468.406 15.624 468.79 17.04 468.79 18.576C468.79 20.112 468.406 21.54 467.638 22.86C466.87 24.156 465.838 25.188 464.542 25.956C463.246 26.724 461.83 27.108 460.294 27.108C459.358 27.108 458.482 26.988 457.666 26.748C456.85 26.484 456.154 26.136 455.578 25.704C455.578 27.24 455.53 28.428 455.434 29.268C455.338 30.108 455.074 30.792 454.642 31.32C454.234 31.872 453.574 32.148 452.662 32.148ZM460.114 21.132C460.738 21.132 461.278 20.904 461.734 20.448C462.214 19.968 462.454 19.416 462.454 18.792C462.454 18.168 462.214 17.628 461.734 17.172C461.278 16.692 460.738 16.452 460.114 16.452C459.49 16.452 458.938 16.692 458.458 17.172C458.002 17.628 457.774 18.168 457.774 18.792C457.774 19.416 458.002 19.968 458.458 20.448C458.938 20.904 459.49 21.132 460.114 21.132ZM487.849 27C485.977 27 484.441 26.58 483.241 25.74C482.041 24.876 481.441 23.64 481.441 22.032C481.441 20.64 482.053 19.536 483.277 18.72C484.501 17.904 486.025 17.496 487.849 17.496C488.521 17.496 489.145 17.556 489.721 17.676C490.321 17.772 490.729 17.892 490.945 18.036C490.945 17.436 490.693 16.944 490.189 16.56C489.685 16.152 488.917 15.948 487.885 15.948C487.429 15.948 487.057 15.984 486.769 16.056C486.481 16.128 486.169 16.236 485.833 16.38C485.497 16.524 485.185 16.632 484.897 16.704C484.633 16.776 484.273 16.812 483.817 16.812C483.049 16.812 482.449 16.62 482.017 16.236C481.585 15.828 481.369 15.216 481.369 14.4C481.369 13.464 481.705 12.672 482.377 12.024C483.073 11.376 483.937 10.896 484.969 10.584C486.001 10.248 487.033 10.08 488.065 10.08C490.105 10.08 491.809 10.464 493.177 11.232C494.569 11.976 495.589 12.972 496.237 14.22C496.909 15.468 497.245 16.848 497.245 18.36C497.245 19.176 497.173 19.932 497.029 20.628C496.909 21.324 496.741 21.864 496.525 22.248C496.861 22.536 497.113 22.872 497.281 23.256C497.473 23.64 497.569 24.036 497.569 24.444C497.569 25.14 497.329 25.74 496.849 26.244C496.393 26.748 495.781 27 495.013 27C494.437 27 493.969 26.916 493.609 26.748C493.249 26.58 492.865 26.316 492.457 25.956C491.857 26.316 491.197 26.58 490.477 26.748C489.781 26.916 488.905 27 487.849 27ZM488.569 23.364C489.073 23.364 489.469 23.256 489.757 23.04C490.069 22.824 490.225 22.56 490.225 22.248C490.225 21.936 490.069 21.672 489.757 21.456C489.469 21.24 489.073 21.132 488.569 21.132C488.065 21.132 487.657 21.24 487.345 21.456C487.057 21.672 486.913 21.936 486.913 22.248C486.913 22.56 487.057 22.824 487.345 23.04C487.657 23.256 488.065 23.364 488.569 23.364ZM515.495 11.412C515.495 12.66 514.907 13.512 513.731 13.968C512.555 14.4 510.947 14.628 508.907 14.652C508.883 15.252 508.871 16.224 508.871 17.568C508.871 18.936 508.967 19.908 509.159 20.484C509.279 20.892 509.459 21.156 509.699 21.276C509.963 21.396 510.347 21.48 510.851 21.528C511.019 21.552 511.199 21.588 511.391 21.636C511.607 21.66 511.847 21.696 512.111 21.744C512.663 21.864 513.095 22.164 513.407 22.644C513.719 23.1 513.875 23.688 513.875 24.408C513.875 25.224 513.455 25.86 512.615 26.316C511.775 26.772 510.623 27 509.159 27C507.815 27 506.531 26.616 505.307 25.848C504.083 25.056 503.243 24 502.787 22.68C502.307 21.264 502.067 18.588 502.067 14.652C500.387 14.604 499.031 14.388 497.999 14.004C496.991 13.596 496.487 12.876 496.487 11.844C496.487 10.548 496.967 9.684 497.927 9.252C498.887 8.796 500.267 8.556 502.067 8.532C502.139 6.612 502.439 5.016 502.967 3.744C503.495 2.448 504.443 1.8 505.811 1.8C507.203 1.8 508.103 2.4 508.511 3.6C508.943 4.8 509.135 6.444 509.087 8.532C511.271 8.508 512.879 8.676 513.911 9.036C514.967 9.396 515.495 10.188 515.495 11.412ZM534.571 27C532.699 27 531.163 26.58 529.963 25.74C528.763 24.876 528.163 23.64 528.163 22.032C528.163 20.64 528.775 19.536 529.999 18.72C531.223 17.904 532.747 17.496 534.571 17.496C535.243 17.496 535.867 17.556 536.443 17.676C537.043 17.772 537.451 17.892 537.667 18.036C537.667 17.436 537.415 16.944 536.911 16.56C536.407 16.152 535.639 15.948 534.607 15.948C534.151 15.948 533.779 15.984 533.491 16.056C533.203 16.128 532.891 16.236 532.555 16.38C532.219 16.524 531.907 16.632 531.619 16.704C531.355 16.776 530.995 16.812 530.539 16.812C529.771 16.812 529.171 16.62 528.739 16.236C528.307 15.828 528.091 15.216 528.091 14.4C528.091 13.464 528.427 12.672 529.099 12.024C529.795 11.376 530.659 10.896 531.691 10.584C532.723 10.248 533.755 10.08 534.787 10.08C536.827 10.08 538.531 10.464 539.899 11.232C541.291 11.976 542.311 12.972 542.959 14.22C543.631 15.468 543.967 16.848 543.967 18.36C543.967 19.176 543.895 19.932 543.751 20.628C543.631 21.324 543.463 21.864 543.247 22.248C543.583 22.536 543.835 22.872 544.003 23.256C544.195 23.64 544.291 24.036 544.291 24.444C544.291 25.14 544.051 25.74 543.571 26.244C543.115 26.748 542.503 27 541.735 27C541.159 27 540.691 26.916 540.331 26.748C539.971 26.58 539.587 26.316 539.179 25.956C538.579 26.316 537.919 26.58 537.199 26.748C536.503 26.916 535.627 27 534.571 27ZM535.291 23.364C535.795 23.364 536.191 23.256 536.479 23.04C536.791 22.824 536.947 22.56 536.947 22.248C536.947 21.936 536.791 21.672 536.479 21.456C536.191 21.24 535.795 21.132 535.291 21.132C534.787 21.132 534.379 21.24 534.067 21.456C533.779 21.672 533.635 21.936 533.635 22.248C533.635 22.56 533.779 22.824 534.067 23.04C534.379 23.256 534.787 23.364 535.291 23.364ZM582.336 7.164C582.336 8.748 581.676 9.9 580.356 10.62C579.06 11.316 576.936 11.736 573.984 11.88C574.08 13.032 574.128 14.52 574.128 16.344C574.128 18.888 573.984 20.928 573.696 22.464C573.432 23.976 572.964 25.104 572.292 25.848C571.62 26.568 570.684 26.928 569.484 26.928C568.308 26.928 567.408 26.544 566.784 25.776C566.16 25.008 565.728 23.868 565.488 22.356C565.248 20.844 565.128 18.84 565.128 16.344C565.128 14.664 565.164 13.176 565.236 11.88C563.244 11.784 561.636 11.58 560.412 11.268C559.212 10.932 558.324 10.44 557.748 9.792C557.172 9.144 556.884 8.268 556.884 7.164C556.884 5.82 557.34 4.764 558.252 3.996C559.164 3.228 560.532 2.688 562.356 2.376C564.18 2.064 566.568 1.908 569.52 1.908C572.496 1.908 574.908 2.064 576.756 2.376C578.604 2.688 579.996 3.228 580.932 3.996C581.868 4.764 582.336 5.82 582.336 7.164ZM588.342 9.54C587.166 9.54 586.17 9.12 585.354 8.28C584.538 7.416 584.13 6.372 584.13 5.148C584.13 3.948 584.538 2.928 585.354 2.088C586.17 1.224 587.166 0.791998 588.342 0.791998C589.494 0.791998 590.478 1.224 591.294 2.088C592.134 2.928 592.554 3.948 592.554 5.148C592.554 6.372 592.134 7.416 591.294 8.28C590.478 9.12 589.494 9.54 588.342 9.54ZM588.342 27C587.358 27 586.626 26.724 586.146 26.172C585.69 25.596 585.378 24.744 585.21 23.616C585.066 22.464 584.994 20.832 584.994 18.72C584.994 16.944 585.078 15.54 585.246 14.508C585.438 13.476 585.774 12.708 586.254 12.204C586.734 11.7 587.43 11.448 588.342 11.448C589.326 11.448 590.046 11.736 590.502 12.312C590.982 12.864 591.294 13.716 591.438 14.868C591.606 15.996 591.69 17.616 591.69 19.728C591.69 21.504 591.594 22.908 591.402 23.94C591.234 24.972 590.91 25.74 590.43 26.244C589.95 26.748 589.254 27 588.342 27ZM606.141 27C605.037 27 604.281 26.628 603.873 25.884C603.465 25.14 603.261 24 603.261 22.464C603.261 21.336 603.249 20.532 603.225 20.052C603.201 19.548 603.105 19.128 602.937 18.792C602.793 18.456 602.529 18.288 602.145 18.288C601.689 18.288 601.353 18.444 601.137 18.756C600.921 19.044 600.789 19.428 600.741 19.908C600.717 20.364 600.705 21.06 600.705 21.996C600.705 23.148 600.657 24.06 600.561 24.732C600.465 25.38 600.213 25.92 599.805 26.352C599.397 26.76 598.761 26.964 597.897 26.964C595.305 26.964 594.009 23.676 594.009 17.1C594.009 14.868 594.201 13.14 594.585 11.916C594.993 10.668 595.749 9.888 596.853 9.576C597.261 9.456 597.633 9.396 597.969 9.396C598.473 9.396 598.929 9.504 599.337 9.72C599.745 9.936 600.033 10.236 600.201 10.62C600.537 10.428 600.873 10.284 601.209 10.188C601.545 10.092 602.025 10.044 602.649 10.044C603.417 10.044 604.137 10.236 604.809 10.62C605.505 10.98 605.997 11.496 606.285 12.168C606.909 11.448 607.533 10.92 608.157 10.584C608.805 10.224 609.633 10.044 610.641 10.044C612.129 10.044 613.425 10.488 614.529 11.376C615.657 12.24 616.521 13.44 617.121 14.976C617.745 16.488 618.057 18.168 618.057 20.016C618.057 22.08 617.781 23.76 617.229 25.056C616.677 26.352 615.717 27 614.349 27C613.437 27 612.777 26.772 612.369 26.316C611.985 25.86 611.745 25.296 611.649 24.624C611.577 23.928 611.541 22.92 611.541 21.6C611.541 20.448 611.457 19.608 611.289 19.08C611.121 18.552 610.725 18.288 610.101 18.288C609.645 18.288 609.357 18.54 609.237 19.044C609.117 19.524 609.057 20.328 609.057 21.456C609.033 21.672 609.021 22.008 609.021 22.464C608.973 24 608.745 25.14 608.337 25.884C607.929 26.628 607.197 27 606.141 27ZM628.182 27C626.406 27 624.834 26.652 623.466 25.956C622.098 25.26 621.03 24.288 620.262 23.04C619.518 21.768 619.146 20.34 619.146 18.756C619.146 17.196 619.518 15.756 620.262 14.436C621.03 13.116 622.086 12.06 623.43 11.268C624.774 10.476 626.298 10.08 628.002 10.08C629.538 10.08 630.894 10.392 632.07 11.016C633.246 11.64 634.146 12.468 634.77 13.5C635.394 14.508 635.706 15.564 635.706 16.668C635.706 18.468 635.022 19.788 633.654 20.628C632.31 21.444 630.702 21.852 628.83 21.852C627.582 21.852 626.526 21.696 625.662 21.384C626.382 22.56 627.57 23.148 629.226 23.148C629.898 23.148 630.618 23.064 631.386 22.896C631.674 22.824 631.95 22.788 632.214 22.788C632.742 22.788 633.162 22.92 633.474 23.184C633.81 23.448 633.978 23.808 633.978 24.264C633.978 25.008 633.522 25.656 632.61 26.208C631.698 26.736 630.222 27 628.182 27ZM625.77 16.992C625.986 17.328 626.274 17.58 626.634 17.748C627.018 17.892 627.438 17.964 627.894 17.964C628.422 17.964 628.878 17.844 629.262 17.604C629.67 17.364 629.874 17.052 629.874 16.668C629.874 16.236 629.694 15.864 629.334 15.552C628.998 15.24 628.506 15.084 627.858 15.084C627.21 15.084 626.694 15.288 626.31 15.696C625.95 16.08 625.77 16.512 625.77 16.992ZM665.139 16.056C665.667 16.392 665.931 16.932 665.931 17.676C665.931 18.42 665.667 18.96 665.139 19.296C664.635 19.632 663.891 19.848 662.907 19.944C661.947 20.016 660.483 20.052 658.515 20.052H657.111H655.707C653.739 20.052 652.263 20.016 651.279 19.944C650.319 19.848 649.575 19.632 649.047 19.296C648.543 18.96 648.291 18.42 648.291 17.676C648.291 16.932 648.543 16.392 649.047 16.056C649.575 15.72 650.319 15.516 651.279 15.444C652.263 15.348 653.739 15.3 655.707 15.3H657.111H658.515C660.483 15.3 661.947 15.348 662.907 15.444C663.891 15.516 664.635 15.72 665.139 16.056ZM687.993 27C686.073 27 684.393 26.472 682.953 25.416C681.537 24.36 680.445 22.86 679.677 20.916C678.909 18.972 678.525 16.68 678.525 14.04C678.525 12.504 678.777 10.86 679.281 9.108C679.809 7.356 680.553 5.88 681.513 4.68C682.497 3.456 683.637 2.844 684.933 2.844C685.989 2.844 686.865 3.228 687.561 3.996C688.257 4.764 688.605 5.712 688.605 6.84C688.605 7.176 688.521 7.632 688.353 8.208C688.209 8.76 688.041 9.336 687.849 9.936C687.489 10.968 687.213 11.88 687.021 12.672C686.829 13.44 686.733 14.184 686.733 14.904C686.733 15.96 686.889 16.728 687.201 17.208C687.513 17.688 687.897 17.928 688.353 17.928C688.953 17.928 689.373 17.628 689.613 17.028C689.877 16.404 690.009 15.264 690.009 13.608L689.973 11.124C689.973 9.204 690.225 7.68 690.729 6.552C691.233 5.4 692.241 4.824 693.753 4.824C694.881 4.824 695.733 5.136 696.309 5.76C696.885 6.384 697.257 7.176 697.425 8.136C697.593 9.072 697.677 10.212 697.677 11.556V13.392C697.677 15.144 697.821 16.392 698.109 17.136C698.421 17.856 698.913 18.216 699.585 18.216C700.041 18.216 700.389 17.988 700.629 17.532C700.893 17.052 701.025 16.344 701.025 15.408C701.025 14.712 700.941 14.016 700.773 13.32C700.605 12.624 700.341 11.736 699.981 10.656C699.669 9.624 699.441 8.856 699.297 8.352C699.177 7.824 699.117 7.32 699.117 6.84C699.117 5.712 699.477 4.776 700.197 4.032C700.941 3.288 701.805 2.916 702.789 2.916C704.205 2.916 705.393 3.516 706.353 4.716C707.337 5.892 708.069 7.344 708.549 9.072C709.029 10.8 709.269 12.456 709.269 14.04C709.269 16.68 708.885 18.972 708.117 20.916C707.349 22.86 706.245 24.36 704.805 25.416C703.389 26.448 701.721 26.964 699.801 26.964C698.745 26.964 697.713 26.724 696.705 26.244C695.697 25.764 694.761 25.044 693.897 24.084C693.033 25.044 692.085 25.776 691.053 26.28C690.045 26.76 689.025 27 687.993 27ZM719.026 27C717.25 27 715.678 26.652 714.31 25.956C712.942 25.26 711.874 24.288 711.106 23.04C710.362 21.768 709.99 20.34 709.99 18.756C709.99 17.196 710.362 15.756 711.106 14.436C711.874 13.116 712.93 12.06 714.274 11.268C715.618 10.476 717.142 10.08 718.846 10.08C720.382 10.08 721.738 10.392 722.914 11.016C724.09 11.64 724.99 12.468 725.614 13.5C726.238 14.508 726.55 15.564 726.55 16.668C726.55 18.468 725.866 19.788 724.498 20.628C723.154 21.444 721.546 21.852 719.674 21.852C718.426 21.852 717.37 21.696 716.506 21.384C717.226 22.56 718.414 23.148 720.07 23.148C720.742 23.148 721.462 23.064 722.23 22.896C722.518 22.824 722.794 22.788 723.058 22.788C723.586 22.788 724.006 22.92 724.318 23.184C724.654 23.448 724.822 23.808 724.822 24.264C724.822 25.008 724.366 25.656 723.454 26.208C722.542 26.736 721.066 27 719.026 27ZM716.614 16.992C716.83 17.328 717.118 17.58 717.478 17.748C717.862 17.892 718.282 17.964 718.738 17.964C719.266 17.964 719.722 17.844 720.106 17.604C720.514 17.364 720.718 17.052 720.718 16.668C720.718 16.236 720.538 15.864 720.178 15.552C719.842 15.24 719.35 15.084 718.702 15.084C718.054 15.084 717.538 15.288 717.154 15.696C716.794 16.08 716.614 16.512 716.614 16.992ZM732.553 26.928C731.353 26.928 730.453 26.484 729.853 25.596C729.253 24.708 728.845 23.4 728.629 21.672C728.437 19.92 728.341 17.484 728.341 14.364C728.341 11.364 728.413 9.024 728.557 7.344C728.725 5.664 729.109 4.32 729.709 3.312C730.333 2.304 731.293 1.8 732.589 1.8C733.885 1.8 734.833 2.304 735.433 3.312C736.057 4.32 736.441 5.664 736.585 7.344C736.753 9.024 736.837 11.364 736.837 14.364C736.837 17.316 736.705 19.704 736.441 21.528C736.201 23.328 735.769 24.684 735.145 25.596C734.521 26.484 733.657 26.928 732.553 26.928ZM746.759 26.964C745.223 26.964 743.771 26.592 742.403 25.848C741.059 25.08 739.979 24.048 739.163 22.752C738.347 21.456 737.939 20.004 737.939 18.396C737.939 16.716 738.335 15.252 739.127 14.004C739.943 12.732 741.011 11.76 742.331 11.088C743.675 10.416 745.115 10.08 746.651 10.08C748.115 10.08 749.435 10.368 750.611 10.944C751.787 11.52 752.699 12.276 753.347 13.212C753.995 14.124 754.319 15.084 754.319 16.092C754.319 16.932 754.055 17.58 753.527 18.036C753.023 18.492 752.267 18.72 751.259 18.72C750.731 18.72 750.323 18.624 750.035 18.432C749.747 18.24 749.447 17.952 749.135 17.568C748.847 17.208 748.571 16.944 748.307 16.776C748.067 16.584 747.719 16.488 747.263 16.488C746.615 16.488 746.063 16.716 745.607 17.172C745.151 17.604 744.923 18.168 744.923 18.864C744.923 19.584 745.139 20.16 745.571 20.592C746.027 21.024 746.591 21.24 747.263 21.24C747.695 21.24 748.031 21.18 748.271 21.06C748.511 20.94 748.775 20.748 749.063 20.484C749.399 20.196 749.711 19.992 749.999 19.872C750.287 19.728 750.707 19.656 751.259 19.656C752.243 19.656 752.999 19.92 753.527 20.448C754.055 20.976 754.319 21.588 754.319 22.284C754.319 23.1 753.995 23.868 753.347 24.588C752.723 25.308 751.835 25.884 750.683 26.316C749.531 26.748 748.223 26.964 746.759 26.964ZM764.763 27.036C763.035 27.06 761.487 26.7 760.119 25.956C758.775 25.212 757.719 24.192 756.951 22.896C756.207 21.576 755.811 20.112 755.763 18.504C755.739 16.896 756.111 15.456 756.879 14.184C757.647 12.912 758.715 11.904 760.083 11.16C761.475 10.416 763.035 10.044 764.763 10.044C766.443 10.044 767.955 10.404 769.299 11.124C770.667 11.844 771.747 12.852 772.539 14.148C773.331 15.444 773.751 16.896 773.799 18.504C773.823 20.064 773.451 21.492 772.683 22.788C771.915 24.06 770.835 25.08 769.443 25.848C768.075 26.616 766.515 27.012 764.763 27.036ZM764.871 21.78C765.519 21.78 766.083 21.528 766.563 21.024C767.043 20.52 767.283 19.932 767.283 19.26C767.283 18.588 767.043 18.012 766.563 17.532C766.083 17.028 765.519 16.776 764.871 16.776C764.223 16.776 763.659 17.028 763.179 17.532C762.699 18.012 762.459 18.588 762.459 19.26C762.459 19.932 762.699 20.52 763.179 21.024C763.659 21.528 764.223 21.78 764.871 21.78ZM787.02 27C785.916 27 785.16 26.628 784.752 25.884C784.344 25.14 784.14 24 784.14 22.464C784.14 21.336 784.128 20.532 784.104 20.052C784.08 19.548 783.984 19.128 783.816 18.792C783.672 18.456 783.408 18.288 783.024 18.288C782.568 18.288 782.232 18.444 782.016 18.756C781.8 19.044 781.668 19.428 781.62 19.908C781.596 20.364 781.584 21.06 781.584 21.996C781.584 23.148 781.536 24.06 781.44 24.732C781.344 25.38 781.092 25.92 780.684 26.352C780.276 26.76 779.64 26.964 778.776 26.964C776.184 26.964 774.888 23.676 774.888 17.1C774.888 14.868 775.08 13.14 775.464 11.916C775.872 10.668 776.628 9.888 777.732 9.576C778.14 9.456 778.512 9.396 778.848 9.396C779.352 9.396 779.808 9.504 780.216 9.72C780.624 9.936 780.912 10.236 781.08 10.62C781.416 10.428 781.752 10.284 782.088 10.188C782.424 10.092 782.904 10.044 783.528 10.044C784.296 10.044 785.016 10.236 785.688 10.62C786.384 10.98 786.876 11.496 787.164 12.168C787.788 11.448 788.412 10.92 789.036 10.584C789.684 10.224 790.512 10.044 791.52 10.044C793.008 10.044 794.304 10.488 795.408 11.376C796.536 12.24 797.4 13.44 798 14.976C798.624 16.488 798.936 18.168 798.936 20.016C798.936 22.08 798.66 23.76 798.108 25.056C797.556 26.352 796.596 27 795.228 27C794.316 27 793.656 26.772 793.248 26.316C792.864 25.86 792.624 25.296 792.528 24.624C792.456 23.928 792.42 22.92 792.42 21.6C792.42 20.448 792.336 19.608 792.168 19.08C792 18.552 791.604 18.288 790.98 18.288C790.524 18.288 790.236 18.54 790.116 19.044C789.996 19.524 789.936 20.328 789.936 21.456C789.912 21.672 789.9 22.008 789.9 22.464C789.852 24 789.624 25.14 789.216 25.884C788.808 26.628 788.076 27 787.02 27ZM809.061 27C807.285 27 805.713 26.652 804.345 25.956C802.977 25.26 801.909 24.288 801.141 23.04C800.397 21.768 800.025 20.34 800.025 18.756C800.025 17.196 800.397 15.756 801.141 14.436C801.909 13.116 802.965 12.06 804.309 11.268C805.653 10.476 807.177 10.08 808.881 10.08C810.417 10.08 811.773 10.392 812.949 11.016C814.125 11.64 815.025 12.468 815.649 13.5C816.273 14.508 816.585 15.564 816.585 16.668C816.585 18.468 815.901 19.788 814.533 20.628C813.189 21.444 811.581 21.852 809.709 21.852C808.461 21.852 807.405 21.696 806.541 21.384C807.261 22.56 808.449 23.148 810.105 23.148C810.777 23.148 811.497 23.064 812.265 22.896C812.553 22.824 812.829 22.788 813.093 22.788C813.621 22.788 814.041 22.92 814.353 23.184C814.689 23.448 814.857 23.808 814.857 24.264C814.857 25.008 814.401 25.656 813.489 26.208C812.577 26.736 811.101 27 809.061 27ZM806.649 16.992C806.865 17.328 807.153 17.58 807.513 17.748C807.897 17.892 808.317 17.964 808.773 17.964C809.301 17.964 809.757 17.844 810.141 17.604C810.549 17.364 810.753 17.052 810.753 16.668C810.753 16.236 810.573 15.864 810.213 15.552C809.877 15.24 809.385 15.084 808.737 15.084C808.089 15.084 807.573 15.288 807.189 15.696C806.829 16.08 806.649 16.512 806.649 16.992ZM846.738 11.412C846.738 12.66 846.15 13.512 844.974 13.968C843.798 14.4 842.19 14.628 840.15 14.652C840.126 15.252 840.114 16.224 840.114 17.568C840.114 18.936 840.21 19.908 840.402 20.484C840.522 20.892 840.702 21.156 840.942 21.276C841.206 21.396 841.59 21.48 842.094 21.528C842.262 21.552 842.442 21.588 842.634 21.636C842.85 21.66 843.09 21.696 843.354 21.744C843.906 21.864 844.338 22.164 844.65 22.644C844.962 23.1 845.118 23.688 845.118 24.408C845.118 25.224 844.698 25.86 843.858 26.316C843.018 26.772 841.866 27 840.402 27C839.058 27 837.774 26.616 836.55 25.848C835.326 25.056 834.486 24 834.03 22.68C833.55 21.264 833.31 18.588 833.31 14.652C831.63 14.604 830.274 14.388 829.242 14.004C828.234 13.596 827.73 12.876 827.73 11.844C827.73 10.548 828.21 9.684 829.17 9.252C830.13 8.796 831.51 8.556 833.31 8.532C833.382 6.612 833.682 5.016 834.21 3.744C834.738 2.448 835.686 1.8 837.054 1.8C838.446 1.8 839.346 2.4 839.754 3.6C840.186 4.8 840.378 6.444 840.33 8.532C842.514 8.508 844.122 8.676 845.154 9.036C846.21 9.396 846.738 10.188 846.738 11.412ZM855.748 27.036C854.02 27.06 852.472 26.7 851.104 25.956C849.76 25.212 848.704 24.192 847.936 22.896C847.192 21.576 846.796 20.112 846.748 18.504C846.724 16.896 847.096 15.456 847.864 14.184C848.632 12.912 849.7 11.904 851.068 11.16C852.46 10.416 854.02 10.044 855.748 10.044C857.428 10.044 858.94 10.404 860.284 11.124C861.652 11.844 862.732 12.852 863.524 14.148C864.316 15.444 864.736 16.896 864.784 18.504C864.808 20.064 864.436 21.492 863.668 22.788C862.9 24.06 861.82 25.08 860.428 25.848C859.06 26.616 857.5 27.012 855.748 27.036ZM855.856 21.78C856.504 21.78 857.068 21.528 857.548 21.024C858.028 20.52 858.268 19.932 858.268 19.26C858.268 18.588 858.028 18.012 857.548 17.532C857.068 17.028 856.504 16.776 855.856 16.776C855.208 16.776 854.644 17.028 854.164 17.532C853.684 18.012 853.444 18.588 853.444 19.26C853.444 19.932 853.684 20.52 854.164 21.024C854.644 21.528 855.208 21.78 855.856 21.78ZM889.645 27.036C887.461 27.06 885.433 26.52 883.561 25.416C881.713 24.312 880.225 22.8 879.097 20.88C877.993 18.936 877.417 16.788 877.369 14.436C877.345 12.18 877.873 10.092 878.953 8.172C880.033 6.252 881.521 4.728 883.417 3.6C885.313 2.448 887.389 1.872 889.645 1.872C891.853 1.848 893.893 2.4 895.765 3.528C897.661 4.656 899.161 6.204 900.265 8.172C901.369 10.14 901.921 12.312 901.921 14.688C901.921 16.92 901.369 18.972 900.265 20.844C899.161 22.716 897.661 24.204 895.765 25.308C893.893 26.412 891.853 26.988 889.645 27.036ZM889.753 20.016C890.857 20.016 891.793 19.62 892.561 18.828C893.353 18.036 893.737 17.004 893.713 15.732C893.713 14.436 893.329 13.392 892.561 12.6C891.793 11.808 890.857 11.412 889.753 11.412C888.649 11.412 887.713 11.808 886.945 12.6C886.177 13.392 885.793 14.436 885.793 15.732C885.793 17.004 886.177 18.036 886.945 18.828C887.713 19.62 888.649 20.016 889.753 20.016ZM906.885 27C905.349 27 904.317 26.1 903.789 24.3C903.285 22.5 903.033 20.016 903.033 16.848C903.033 15.408 903.093 14.208 903.213 13.248C903.357 12.264 903.681 11.436 904.185 10.764C904.713 10.068 905.517 9.72 906.597 9.72C907.269 9.72 907.857 9.876 908.361 10.188C908.889 10.5 909.225 10.944 909.369 11.52C909.897 11.04 910.581 10.68 911.421 10.44C912.261 10.2 913.161 10.08 914.121 10.08C914.889 10.08 915.669 10.272 916.461 10.656C917.277 11.04 917.949 11.568 918.477 12.24C919.029 12.888 919.305 13.596 919.305 14.364C919.305 15.132 919.029 15.816 918.477 16.416C917.949 16.992 917.241 17.28 916.353 17.28C916.065 17.28 915.789 17.244 915.525 17.172C915.285 17.1 915.069 17.028 914.877 16.956C914.397 16.764 914.013 16.668 913.725 16.668C912.789 16.668 911.961 17.04 911.241 17.784C910.545 18.504 910.197 19.44 910.197 20.592C910.197 21.864 910.149 22.92 910.053 23.76C909.957 24.6 909.669 25.356 909.189 26.028C908.709 26.676 907.941 27 906.885 27ZM930.732 27C926.364 27 923.544 25.668 922.272 23.004C921.024 20.316 920.4 17.592 920.4 14.832C920.4 12.792 920.58 10.776 920.94 8.784C921.324 6.792 921.936 5.124 922.776 3.78C923.616 2.436 924.708 1.764 926.052 1.764C926.892 1.764 927.612 2.028 928.212 2.556C928.812 3.084 929.112 3.852 929.112 4.86C929.112 5.364 929.064 5.868 928.968 6.372C928.872 6.876 928.728 7.5 928.536 8.244C928.488 8.388 928.392 8.748 928.248 9.324C928.128 9.9 928.044 10.44 927.996 10.944C929.052 10.368 930.252 10.08 931.596 10.08C932.94 10.08 934.188 10.38 935.34 10.98C936.516 11.58 937.464 12.504 938.184 13.752C938.928 14.976 939.3 16.476 939.3 18.252C939.3 19.764 938.952 21.192 938.256 22.536C937.56 23.856 936.552 24.936 935.232 25.776C933.936 26.592 932.436 27 930.732 27ZM930.516 21.312C931.164 21.312 931.728 21.072 932.208 20.592C932.712 20.088 932.964 19.5 932.964 18.828C932.964 18.156 932.712 17.568 932.208 17.064C931.728 16.56 931.164 16.308 930.516 16.308C929.868 16.308 929.304 16.56 928.824 17.064C928.344 17.568 928.104 18.156 928.104 18.828C928.104 19.5 928.344 20.088 928.824 20.592C929.304 21.072 929.868 21.312 930.516 21.312ZM943.878 9.54C942.702 9.54 941.706 9.12 940.89 8.28C940.074 7.416 939.666 6.372 939.666 5.148C939.666 3.948 940.074 2.928 940.89 2.088C941.706 1.224 942.702 0.791998 943.878 0.791998C945.03 0.791998 946.014 1.224 946.83 2.088C947.67 2.928 948.09 3.948 948.09 5.148C948.09 6.372 947.67 7.416 946.83 8.28C946.014 9.12 945.03 9.54 943.878 9.54ZM943.878 27C942.894 27 942.162 26.724 941.682 26.172C941.226 25.596 940.914 24.744 940.746 23.616C940.602 22.464 940.53 20.832 940.53 18.72C940.53 16.944 940.614 15.54 940.782 14.508C940.974 13.476 941.31 12.708 941.79 12.204C942.27 11.7 942.966 11.448 943.878 11.448C944.862 11.448 945.582 11.736 946.038 12.312C946.518 12.864 946.83 13.716 946.974 14.868C947.142 15.996 947.226 17.616 947.226 19.728C947.226 21.504 947.13 22.908 946.938 23.94C946.77 24.972 946.446 25.74 945.966 26.244C945.486 26.748 944.79 27 943.878 27ZM967.464 11.412C967.464 12.66 966.876 13.512 965.7 13.968C964.524 14.4 962.916 14.628 960.876 14.652C960.852 15.252 960.84 16.224 960.84 17.568C960.84 18.936 960.936 19.908 961.128 20.484C961.248 20.892 961.428 21.156 961.668 21.276C961.932 21.396 962.316 21.48 962.82 21.528C962.988 21.552 963.168 21.588 963.36 21.636C963.576 21.66 963.816 21.696 964.08 21.744C964.632 21.864 965.064 22.164 965.376 22.644C965.688 23.1 965.844 23.688 965.844 24.408C965.844 25.224 965.424 25.86 964.584 26.316C963.744 26.772 962.592 27 961.128 27C959.784 27 958.5 26.616 957.276 25.848C956.052 25.056 955.212 24 954.756 22.68C954.276 21.264 954.036 18.588 954.036 14.652C952.356 14.604 951 14.388 949.968 14.004C948.96 13.596 948.456 12.876 948.456 11.844C948.456 10.548 948.936 9.684 949.896 9.252C950.856 8.796 952.236 8.556 954.036 8.532C954.108 6.612 954.408 5.016 954.936 3.744C955.464 2.448 956.412 1.8 957.78 1.8C959.172 1.8 960.072 2.4 960.48 3.6C960.912 4.8 961.104 6.444 961.056 8.532C963.24 8.508 964.848 8.676 965.88 9.036C966.936 9.396 967.464 10.188 967.464 11.412ZM976.169 26.964C974.393 26.964 972.989 26.88 971.957 26.712C970.949 26.52 970.157 26.148 969.581 25.596C969.029 25.02 968.753 24.156 968.753 23.004C968.753 22.02 969.233 21.072 970.193 20.16C971.153 19.248 972.689 18.048 974.801 16.56C973.073 16.56 971.777 16.512 970.913 16.416C970.073 16.32 969.401 16.056 968.897 15.624C968.417 15.168 968.177 14.436 968.177 13.428C968.177 12.204 968.813 11.34 970.085 10.836C971.381 10.332 973.313 10.08 975.881 10.08C978.569 10.08 980.549 10.392 981.821 11.016C983.093 11.616 983.729 12.744 983.729 14.4C983.729 15.72 983.141 16.98 981.965 18.18C980.813 19.38 979.421 20.388 977.789 21.204C979.133 21.204 980.201 21.264 980.993 21.384C981.785 21.48 982.409 21.732 982.865 22.14C983.345 22.524 983.585 23.112 983.585 23.904C983.585 25.152 982.985 25.98 981.785 26.388C980.609 26.772 978.737 26.964 976.169 26.964Z" fill="#E91B8D"/>
</svg>
