<svg width="248" height="269" viewBox="0 0 248 269" fill="none" xmlns="http://www.w3.org/2000/svg">
<g clip-path="url(#clip0_12_760)">
<path d="M219.522 152.939C224.424 140.717 226.801 128.787 226.651 117.135C226.5 105.486 224.135 94.6898 219.563 84.7386C214.988 74.7912 208.438 65.9399 199.916 58.1809C191.387 50.4236 181.3 44.1597 169.654 39.399C158.001 34.6339 146.39 32.1354 134.823 31.8877C123.246 31.6394 112.345 33.5832 102.12 37.7131C91.8855 41.8424 82.635 48.0072 74.3551 56.2049C66.0791 64.4047 59.4919 74.6168 54.5822 86.8347C49.5136 98.9608 47.0792 110.806 47.2805 122.378C47.478 133.947 49.8642 144.705 54.439 154.653C59.0116 164.604 65.5992 173.477 74.2072 181.28C82.8098 189.075 92.9362 195.367 104.59 200.132C116.236 204.893 127.848 207.397 139.421 207.643C150.989 207.891 161.865 205.989 172.051 201.943C182.232 197.899 191.464 191.774 199.744 183.576C208.02 175.377 214.611 165.167 219.521 152.949L219.522 152.939Z" fill="#EEA520"/>
<path d="M140.795 81.5096C141.389 80.026 141.682 78.5758 141.66 77.162C141.639 75.7482 141.357 74.4367 140.798 73.2286C140.243 72.0227 139.447 70.9458 138.412 70.004C137.376 69.0621 136.151 68.2994 134.737 67.7256C133.321 67.1459 131.911 66.8431 130.507 66.8114C129.1 66.7835 127.779 67.0177 126.536 67.5193C125.293 68.0209 124.17 68.7689 123.165 69.7672C122.159 70.7654 121.359 72.0033 120.765 73.4868C120.152 74.9594 119.856 76.3977 119.878 77.8018C119.904 79.208 120.194 80.514 120.747 81.7237C121.302 82.9296 122.102 84.0087 123.149 84.9571C124.192 85.9033 125.424 86.6704 126.838 87.2442C128.254 87.8239 129.664 88.1267 131.068 88.1584C132.473 88.1901 133.794 87.956 135.03 87.4657C136.267 86.9755 137.388 86.2313 138.393 85.233C139.398 84.2347 140.199 82.9969 140.793 81.5133L140.795 81.5096Z" fill="black"/>
<path d="M187.199 108.301C187.794 106.818 188.086 105.367 188.065 103.953C188.043 102.54 187.761 101.228 187.202 100.02C186.647 98.8142 185.851 97.7373 184.816 96.7955C183.78 95.8536 182.556 95.0909 181.141 94.5171C179.725 93.9374 178.316 93.6346 176.911 93.6029C175.505 93.575 174.184 93.8092 172.94 94.3108C171.697 94.8124 170.574 95.5604 169.569 96.5587C168.564 97.5569 167.763 98.7948 167.169 100.278C166.556 101.751 166.26 103.189 166.282 104.593C166.308 105.999 166.598 107.306 167.151 108.515C167.706 109.721 168.506 110.8 169.553 111.749C170.596 112.695 171.828 113.462 173.243 114.036C174.659 114.615 176.068 114.918 177.473 114.95C178.877 114.982 180.198 114.747 181.435 114.257C182.671 113.767 183.792 113.023 184.797 112.025C185.803 111.026 186.603 109.788 187.197 108.305L187.199 108.301Z" fill="black"/>
<path d="M102.396 151.906C93.9693 147.041 86.254 139.055 79.676 128.295C78.5808 126.504 79.1473 124.16 80.9384 123.059C82.7296 121.958 85.0693 122.519 86.1645 124.31C94.5959 138.108 104.847 146.683 115.815 149.114C128.157 151.848 145.137 148.112 153.302 146.319C156.735 145.564 159.803 144.76 162.508 144.05C166.189 143.084 169.095 142.323 171.517 142.036C172.892 141.874 177.077 141.381 179.423 144.597C182.41 148.695 180.146 154.967 171.858 165.573C170.561 167.233 168.173 167.524 166.519 166.23C164.865 164.936 164.576 162.543 165.876 160.885C171.051 154.265 172.513 150.955 172.917 149.529C171.05 149.67 167.434 150.618 164.42 151.408C161.643 152.137 158.498 152.962 154.916 153.748C146.223 155.661 128.135 159.638 114.156 156.54C110.117 155.645 106.183 154.087 102.395 151.9L102.396 151.906Z" fill="black"/>
<path d="M41.0194 185.332C39.4642 184.434 38.8418 182.471 39.6343 180.819C42.02 175.856 45.1623 171.366 48.9657 167.47C54.7748 161.524 62.1301 157.043 70.2336 154.517C72.0667 153.946 74.008 154.971 74.5757 156.801C75.1413 158.635 74.1134 160.582 72.2841 161.155C67.3997 162.676 60.2476 165.853 53.9224 172.325C50.6498 175.678 47.9433 179.544 45.8875 183.822C45.0549 185.552 42.979 186.281 41.253 185.452C41.173 185.416 41.0935 185.37 41.0178 185.326L41.0194 185.332Z" fill="black"/>
<path d="M119.789 230.81C119.713 230.766 119.637 230.722 119.562 230.669C117.981 229.589 117.575 227.427 118.657 225.84C121.333 221.921 123.328 217.644 124.595 213.134C126.529 206.236 126.7 198.81 125.089 191.647C124.666 189.774 125.842 187.913 127.713 187.485C129.585 187.058 131.44 188.231 131.863 190.104C133.726 198.385 133.525 206.991 131.279 214.999C129.806 220.241 127.489 225.207 124.384 229.754C123.353 231.269 121.338 231.709 119.783 230.811L119.789 230.81Z" fill="black"/>
<path d="M21.8796 191.899C33.3657 198.531 45.1753 199.58 48.2572 194.242C51.3391 188.904 44.5261 179.2 33.04 172.569C21.554 165.938 9.74433 164.889 6.66247 170.227C3.58061 175.565 10.3936 185.268 21.8796 191.899Z" fill="black"/>
<path d="M124.175 250.96C135.661 257.591 147.471 258.64 150.553 253.302C153.634 247.964 146.822 238.261 135.335 231.629C123.849 224.998 112.04 223.949 108.958 229.287C105.876 234.625 112.689 244.328 124.175 250.96Z" fill="black"/>
</g>
<defs>
<clipPath id="clip0_12_760">
<rect width="178" height="207" fill="white" transform="translate(103.5) rotate(30)"/>
</clipPath>
</defs>
</svg>
